M48
; DRILL file {KiCad 5.1.10-88a1d61d58~88~ubuntu18.04.1} date Fri May  6 23:41:51 2022
; FORMAT={-:-/ absolute / inch / decimal}
; #@! TF.CreationDate,2022-05-06T23:41:51+07:00
; #@! TF.GenerationSoftware,Kicad,Pcbnew,5.1.10-88a1d61d58~88~ubuntu18.04.1
; #@! TF.FileFunction,Plated,1,2,PTH
FMAT,2
INCH
T1C0.0157
T2C0.0315
T3C0.0866
%
G90
G05
T1
X4.0981Y-4.0864
X4.0983Y-3.992
X4.0988Y-3.8986
X4.0996Y-3.7406
X4.1Y-3.571
X4.1Y-3.646
X4.243Y-4.055
X4.2437Y-3.6139
X4.2437Y-3.8029
X4.2437Y-3.8659
X4.244Y-3.9289
X4.2449Y-3.677
X4.283Y-3.7084
X4.283Y-3.7714
X4.283Y-3.8344
X4.283Y-3.9604
X4.283Y-4.0234
X4.285Y-3.5824
X4.2945Y-3.8975
X4.2965Y-3.6455
X4.488Y-3.738
X4.49Y-3.644
X4.61Y-3.643
X4.61Y-3.739
X4.61Y-4.017
X4.611Y-3.904
X4.612Y-3.524
X4.716Y-4.267
X4.718Y-3.644
X4.718Y-3.739
X4.718Y-3.905
X4.719Y-3.525
X4.835Y-4.267
X4.836Y-3.74
X4.836Y-3.905
X4.836Y-4.019
X4.837Y-3.526
X4.837Y-3.643
X4.957Y-4.266
X4.96Y-3.526
X4.96Y-3.738
X4.96Y-3.905
X4.96Y-4.019
X4.961Y-3.643
X5.086Y-3.905
X5.086Y-4.02
X5.086Y-4.154
X5.086Y-4.268
X5.087Y-3.741
X5.088Y-3.526
X5.089Y-3.644
X5.231Y-3.526
X5.232Y-3.645
X5.232Y-4.151
X5.232Y-4.264
X5.279Y-3.677
X5.28Y-3.974
X5.318Y-3.834
X5.318Y-3.897
X5.319Y-3.698
X5.319Y-3.956
X5.32Y-4.02
X5.436Y-3.616
X5.479Y-3.616
X5.541Y-3.693
X5.567Y-3.615
X5.572Y-3.754
T2
X4.1279Y-3.4604
X4.1279Y-4.1612
X4.2079Y-3.4604
X4.2079Y-4.1612
X4.3653Y-3.4604
X4.3653Y-4.1612
X4.4929Y-3.4604
X4.5323Y-4.1612
T3
X4.162Y-3.1165
X4.162Y-4.4581
X5.4942Y-3.1165
X5.4942Y-4.4581
T0
M30
