%TF.GenerationSoftware,KiCad,Pcbnew,5.1.10-88a1d61d58~88~ubuntu18.04.1*%
%TF.CreationDate,2022-05-06T23:41:45+07:00*%
%TF.ProjectId,MX8Mx_EVK_MIPI_CSI-TSC_HM5065-ADAPTER,4d58384d-785f-4455-964b-5f4d4950495f,rev?*%
%TF.SameCoordinates,Original*%
%TF.FileFunction,Soldermask,Top*%
%TF.FilePolarity,Negative*%
%FSLAX46Y46*%
G04 Gerber Fmt 4.6, Leading zero omitted, Abs format (unit mm)*
G04 Created by KiCad (PCBNEW 5.1.10-88a1d61d58~88~ubuntu18.04.1) date 2022-05-06 23:41:45*
%MOMM*%
%LPD*%
G01*
G04 APERTURE LIST*
%ADD10R,0.550000X0.920000*%
%ADD11R,0.470000X0.230000*%
%ADD12R,0.952500X0.508000*%
%ADD13C,1.550000*%
%ADD14R,1.800000X0.350000*%
%ADD15C,1.308000*%
%ADD16C,1.000000*%
%ADD17C,4.400000*%
G04 APERTURE END LIST*
D10*
%TO.C,J2*%
X137004200Y-93036600D03*
X139754200Y-93036600D03*
X139754200Y-98936600D03*
X137004200Y-98936600D03*
D11*
X136974200Y-93786600D03*
X139784200Y-93786600D03*
X136974200Y-94186600D03*
X139784200Y-94186600D03*
X136974200Y-94586600D03*
X139784200Y-94586600D03*
X136974200Y-94986600D03*
X139784200Y-94986600D03*
X136974200Y-95386600D03*
X139784200Y-95386600D03*
X136974200Y-95786600D03*
X139784200Y-95786600D03*
X136974200Y-96186600D03*
X139784200Y-96186600D03*
X136974200Y-96586600D03*
X139784200Y-96586600D03*
X136974200Y-96986600D03*
X139784200Y-96986600D03*
X136974200Y-97386600D03*
X139784200Y-97386600D03*
X136974200Y-97786600D03*
X139784200Y-97786600D03*
X136974200Y-98186600D03*
X139784200Y-98186600D03*
%TD*%
D12*
%TO.C,U1*%
X121748550Y-103901199D03*
X121748550Y-105801201D03*
X119195850Y-105801201D03*
X119195850Y-104851200D03*
X119195850Y-103901199D03*
%TD*%
%TO.C,R2*%
G36*
G01*
X137991800Y-102431001D02*
X137991800Y-101530999D01*
G75*
G02*
X138241799Y-101281000I249999J0D01*
G01*
X138941801Y-101281000D01*
G75*
G02*
X139191800Y-101530999I0J-249999D01*
G01*
X139191800Y-102431001D01*
G75*
G02*
X138941801Y-102681000I-249999J0D01*
G01*
X138241799Y-102681000D01*
G75*
G02*
X137991800Y-102431001I0J249999D01*
G01*
G37*
G36*
G01*
X135991800Y-102431001D02*
X135991800Y-101530999D01*
G75*
G02*
X136241799Y-101281000I249999J0D01*
G01*
X136941801Y-101281000D01*
G75*
G02*
X137191800Y-101530999I0J-249999D01*
G01*
X137191800Y-102431001D01*
G75*
G02*
X136941801Y-102681000I-249999J0D01*
G01*
X136241799Y-102681000D01*
G75*
G02*
X135991800Y-102431001I0J249999D01*
G01*
G37*
%TD*%
%TO.C,R1*%
G36*
G01*
X117364500Y-105278100D02*
X117839500Y-105278100D01*
G75*
G02*
X118077000Y-105515600I0J-237500D01*
G01*
X118077000Y-106015600D01*
G75*
G02*
X117839500Y-106253100I-237500J0D01*
G01*
X117364500Y-106253100D01*
G75*
G02*
X117127000Y-106015600I0J237500D01*
G01*
X117127000Y-105515600D01*
G75*
G02*
X117364500Y-105278100I237500J0D01*
G01*
G37*
G36*
G01*
X117364500Y-103453100D02*
X117839500Y-103453100D01*
G75*
G02*
X118077000Y-103690600I0J-237500D01*
G01*
X118077000Y-104190600D01*
G75*
G02*
X117839500Y-104428100I-237500J0D01*
G01*
X117364500Y-104428100D01*
G75*
G02*
X117127000Y-104190600I0J237500D01*
G01*
X117127000Y-103690600D01*
G75*
G02*
X117364500Y-103453100I237500J0D01*
G01*
G37*
%TD*%
%TO.C,C3*%
G36*
G01*
X124531000Y-104174300D02*
X124531000Y-103699300D01*
G75*
G02*
X124768500Y-103461800I237500J0D01*
G01*
X125368500Y-103461800D01*
G75*
G02*
X125606000Y-103699300I0J-237500D01*
G01*
X125606000Y-104174300D01*
G75*
G02*
X125368500Y-104411800I-237500J0D01*
G01*
X124768500Y-104411800D01*
G75*
G02*
X124531000Y-104174300I0J237500D01*
G01*
G37*
G36*
G01*
X122806000Y-104174300D02*
X122806000Y-103699300D01*
G75*
G02*
X123043500Y-103461800I237500J0D01*
G01*
X123643500Y-103461800D01*
G75*
G02*
X123881000Y-103699300I0J-237500D01*
G01*
X123881000Y-104174300D01*
G75*
G02*
X123643500Y-104411800I-237500J0D01*
G01*
X123043500Y-104411800D01*
G75*
G02*
X122806000Y-104174300I0J237500D01*
G01*
G37*
%TD*%
%TO.C,C2*%
G36*
G01*
X124531000Y-106053900D02*
X124531000Y-105578900D01*
G75*
G02*
X124768500Y-105341400I237500J0D01*
G01*
X125368500Y-105341400D01*
G75*
G02*
X125606000Y-105578900I0J-237500D01*
G01*
X125606000Y-106053900D01*
G75*
G02*
X125368500Y-106291400I-237500J0D01*
G01*
X124768500Y-106291400D01*
G75*
G02*
X124531000Y-106053900I0J237500D01*
G01*
G37*
G36*
G01*
X122806000Y-106053900D02*
X122806000Y-105578900D01*
G75*
G02*
X123043500Y-105341400I237500J0D01*
G01*
X123643500Y-105341400D01*
G75*
G02*
X123881000Y-105578900I0J-237500D01*
G01*
X123881000Y-106053900D01*
G75*
G02*
X123643500Y-106291400I-237500J0D01*
G01*
X123043500Y-106291400D01*
G75*
G02*
X122806000Y-106053900I0J237500D01*
G01*
G37*
%TD*%
%TO.C,C1*%
G36*
G01*
X120747500Y-102345500D02*
X120747500Y-101870500D01*
G75*
G02*
X120985000Y-101633000I237500J0D01*
G01*
X121585000Y-101633000D01*
G75*
G02*
X121822500Y-101870500I0J-237500D01*
G01*
X121822500Y-102345500D01*
G75*
G02*
X121585000Y-102583000I-237500J0D01*
G01*
X120985000Y-102583000D01*
G75*
G02*
X120747500Y-102345500I0J237500D01*
G01*
G37*
G36*
G01*
X119022500Y-102345500D02*
X119022500Y-101870500D01*
G75*
G02*
X119260000Y-101633000I237500J0D01*
G01*
X119860000Y-101633000D01*
G75*
G02*
X120097500Y-101870500I0J-237500D01*
G01*
X120097500Y-102345500D01*
G75*
G02*
X119860000Y-102583000I-237500J0D01*
G01*
X119260000Y-102583000D01*
G75*
G02*
X119022500Y-102345500I0J237500D01*
G01*
G37*
%TD*%
D13*
%TO.C,J1*%
X108879400Y-88793500D03*
X108879400Y-104793500D03*
D14*
X111789400Y-89793500D03*
X111789400Y-90593500D03*
X111789400Y-91393500D03*
X111789400Y-92193500D03*
X111789400Y-92993500D03*
X111789400Y-93793500D03*
X111789400Y-94593500D03*
X111789400Y-95393500D03*
X111789400Y-96193500D03*
X111789400Y-96993500D03*
X111789400Y-97793500D03*
X111789400Y-98593500D03*
X111789400Y-99393500D03*
X111789400Y-100193500D03*
X111789400Y-100993500D03*
X111789400Y-101793500D03*
X111789400Y-102593500D03*
X111789400Y-103393500D03*
X105969400Y-90193500D03*
X105969400Y-90993500D03*
X105969400Y-91793500D03*
X105969400Y-92593500D03*
X105969400Y-93393500D03*
X105969400Y-94193500D03*
X105969400Y-94993500D03*
X105969400Y-95793500D03*
X105969400Y-96593500D03*
X105969400Y-97393500D03*
X105969400Y-98193500D03*
X105969400Y-98993500D03*
X105969400Y-99793500D03*
X105969400Y-100593500D03*
X105969400Y-101393500D03*
X105969400Y-102193500D03*
X105969400Y-102993500D03*
X105969400Y-103793500D03*
D15*
X114119400Y-87893500D03*
X110879400Y-87893500D03*
X106879400Y-87893500D03*
X104849400Y-87893500D03*
X115119400Y-105693500D03*
X110879400Y-105693500D03*
X106879400Y-105693500D03*
X104849400Y-105693500D03*
%TD*%
D16*
%TO.C,TP2*%
X114655600Y-96621600D03*
%TD*%
D17*
%TO.C,H4*%
X139552680Y-79159100D03*
%TD*%
%TO.C,H3*%
X139552680Y-113235740D03*
%TD*%
%TO.C,H2*%
X105714800Y-113235740D03*
%TD*%
%TO.C,H1*%
X105714800Y-79159100D03*
%TD*%
D16*
%TO.C,TP1*%
X114681000Y-100558600D03*
%TD*%
M02*
