%TF.GenerationSoftware,KiCad,Pcbnew,5.1.10-88a1d61d58~88~ubuntu18.04.1*%
%TF.CreationDate,2022-05-06T23:41:45+07:00*%
%TF.ProjectId,MX8Mx_EVK_MIPI_CSI-TSC_HM5065-ADAPTER,4d58384d-785f-4455-964b-5f4d4950495f,rev?*%
%TF.SameCoordinates,Original*%
%TF.FileFunction,Copper,L1,Top*%
%TF.FilePolarity,Positive*%
%FSLAX46Y46*%
G04 Gerber Fmt 4.6, Leading zero omitted, Abs format (unit mm)*
G04 Created by KiCad (PCBNEW 5.1.10-88a1d61d58~88~ubuntu18.04.1) date 2022-05-06 23:41:45*
%MOMM*%
%LPD*%
G01*
G04 APERTURE LIST*
%TA.AperFunction,SMDPad,CuDef*%
%ADD10R,0.550000X0.920000*%
%TD*%
%TA.AperFunction,SMDPad,CuDef*%
%ADD11R,0.470000X0.230000*%
%TD*%
%TA.AperFunction,SMDPad,CuDef*%
%ADD12R,0.952500X0.508000*%
%TD*%
%TA.AperFunction,SMDPad,CuDef*%
%ADD13R,1.800000X0.350000*%
%TD*%
%TA.AperFunction,ComponentPad*%
%ADD14C,1.308000*%
%TD*%
%TA.AperFunction,SMDPad,CuDef*%
%ADD15C,1.000000*%
%TD*%
%TA.AperFunction,ComponentPad*%
%ADD16C,4.400000*%
%TD*%
%TA.AperFunction,ViaPad*%
%ADD17C,0.800000*%
%TD*%
%TA.AperFunction,Conductor*%
%ADD18C,0.250000*%
%TD*%
%TA.AperFunction,Conductor*%
%ADD19C,0.200000*%
%TD*%
%TA.AperFunction,Conductor*%
%ADD20C,0.160000*%
%TD*%
%TA.AperFunction,Conductor*%
%ADD21C,0.300000*%
%TD*%
%TA.AperFunction,Conductor*%
%ADD22C,0.350000*%
%TD*%
%TA.AperFunction,Conductor*%
%ADD23C,0.254000*%
%TD*%
%TA.AperFunction,Conductor*%
%ADD24C,0.100000*%
%TD*%
G04 APERTURE END LIST*
D10*
%TO.P,J2,28*%
%TO.N,GND*%
X137004200Y-93036600D03*
%TO.P,J2,27*%
X139754200Y-93036600D03*
%TO.P,J2,26*%
X139754200Y-98936600D03*
%TO.P,J2,25*%
X137004200Y-98936600D03*
D11*
%TO.P,J2,24*%
X136974200Y-93786600D03*
%TO.P,J2,23*%
%TO.N,/CSI_MCLK_1V8*%
X139784200Y-93786600D03*
%TO.P,J2,22*%
%TO.N,/CSI_D1_P*%
X136974200Y-94186600D03*
%TO.P,J2,21*%
%TO.N,GND*%
X139784200Y-94186600D03*
%TO.P,J2,20*%
%TO.N,/CSI_D1_N*%
X136974200Y-94586600D03*
%TO.P,J2,19*%
%TO.N,/CSI_nRST_1V8*%
X139784200Y-94586600D03*
%TO.P,J2,18*%
%TO.N,GND*%
X136974200Y-94986600D03*
%TO.P,J2,17*%
%TO.N,/I2C_SDA_1V8*%
X139784200Y-94986600D03*
%TO.P,J2,16*%
%TO.N,/CSI_CLK_P*%
X136974200Y-95386600D03*
%TO.P,J2,15*%
%TO.N,/I2C_SCL_1V8*%
X139784200Y-95386600D03*
%TO.P,J2,14*%
%TO.N,/CSI_CLK_N*%
X136974200Y-95786600D03*
%TO.P,J2,13*%
%TO.N,GND*%
X139784200Y-95786600D03*
%TO.P,J2,12*%
X136974200Y-96186600D03*
%TO.P,J2,11*%
%TO.N,Net-(J2-Pad11)*%
X139784200Y-96186600D03*
%TO.P,J2,10*%
%TO.N,/CSI_D0_P*%
X136974200Y-96586600D03*
%TO.P,J2,9*%
%TO.N,Net-(J2-Pad9)*%
X139784200Y-96586600D03*
%TO.P,J2,8*%
%TO.N,/CSI_D0_N*%
X136974200Y-96986600D03*
%TO.P,J2,7*%
%TO.N,/AF-2V8*%
X139784200Y-96986600D03*
%TO.P,J2,6*%
%TO.N,GND*%
X136974200Y-97386600D03*
%TO.P,J2,5*%
X139784200Y-97386600D03*
%TO.P,J2,4*%
%TO.N,/CSI_PWDN_1V8*%
X136974200Y-97786600D03*
%TO.P,J2,3*%
%TO.N,+2V8*%
X139784200Y-97786600D03*
%TO.P,J2,2*%
%TO.N,+1V8*%
X136974200Y-98186600D03*
%TO.P,J2,1*%
%TO.N,GND*%
X139784200Y-98186600D03*
%TD*%
D12*
%TO.P,U1,5*%
%TO.N,+2V8*%
X121748550Y-103901199D03*
%TO.P,U1,4*%
%TO.N,Net-(C2-Pad1)*%
X121748550Y-105801201D03*
%TO.P,U1,3*%
%TO.N,Net-(R1-Pad2)*%
X119195850Y-105801201D03*
%TO.P,U1,2*%
%TO.N,GND*%
X119195850Y-104851200D03*
%TO.P,U1,1*%
%TO.N,+5V*%
X119195850Y-103901199D03*
%TD*%
%TO.P,R2,2*%
%TO.N,+2V8*%
%TA.AperFunction,SMDPad,CuDef*%
G36*
G01*
X137991800Y-102431001D02*
X137991800Y-101530999D01*
G75*
G02*
X138241799Y-101281000I249999J0D01*
G01*
X138941801Y-101281000D01*
G75*
G02*
X139191800Y-101530999I0J-249999D01*
G01*
X139191800Y-102431001D01*
G75*
G02*
X138941801Y-102681000I-249999J0D01*
G01*
X138241799Y-102681000D01*
G75*
G02*
X137991800Y-102431001I0J249999D01*
G01*
G37*
%TD.AperFunction*%
%TO.P,R2,1*%
%TO.N,/AF-2V8*%
%TA.AperFunction,SMDPad,CuDef*%
G36*
G01*
X135991800Y-102431001D02*
X135991800Y-101530999D01*
G75*
G02*
X136241799Y-101281000I249999J0D01*
G01*
X136941801Y-101281000D01*
G75*
G02*
X137191800Y-101530999I0J-249999D01*
G01*
X137191800Y-102431001D01*
G75*
G02*
X136941801Y-102681000I-249999J0D01*
G01*
X136241799Y-102681000D01*
G75*
G02*
X135991800Y-102431001I0J249999D01*
G01*
G37*
%TD.AperFunction*%
%TD*%
%TO.P,R1,2*%
%TO.N,Net-(R1-Pad2)*%
%TA.AperFunction,SMDPad,CuDef*%
G36*
G01*
X117364500Y-105278100D02*
X117839500Y-105278100D01*
G75*
G02*
X118077000Y-105515600I0J-237500D01*
G01*
X118077000Y-106015600D01*
G75*
G02*
X117839500Y-106253100I-237500J0D01*
G01*
X117364500Y-106253100D01*
G75*
G02*
X117127000Y-106015600I0J237500D01*
G01*
X117127000Y-105515600D01*
G75*
G02*
X117364500Y-105278100I237500J0D01*
G01*
G37*
%TD.AperFunction*%
%TO.P,R1,1*%
%TO.N,+5V*%
%TA.AperFunction,SMDPad,CuDef*%
G36*
G01*
X117364500Y-103453100D02*
X117839500Y-103453100D01*
G75*
G02*
X118077000Y-103690600I0J-237500D01*
G01*
X118077000Y-104190600D01*
G75*
G02*
X117839500Y-104428100I-237500J0D01*
G01*
X117364500Y-104428100D01*
G75*
G02*
X117127000Y-104190600I0J237500D01*
G01*
X117127000Y-103690600D01*
G75*
G02*
X117364500Y-103453100I237500J0D01*
G01*
G37*
%TD.AperFunction*%
%TD*%
%TO.P,C3,2*%
%TO.N,GND*%
%TA.AperFunction,SMDPad,CuDef*%
G36*
G01*
X124531000Y-104174300D02*
X124531000Y-103699300D01*
G75*
G02*
X124768500Y-103461800I237500J0D01*
G01*
X125368500Y-103461800D01*
G75*
G02*
X125606000Y-103699300I0J-237500D01*
G01*
X125606000Y-104174300D01*
G75*
G02*
X125368500Y-104411800I-237500J0D01*
G01*
X124768500Y-104411800D01*
G75*
G02*
X124531000Y-104174300I0J237500D01*
G01*
G37*
%TD.AperFunction*%
%TO.P,C3,1*%
%TO.N,+2V8*%
%TA.AperFunction,SMDPad,CuDef*%
G36*
G01*
X122806000Y-104174300D02*
X122806000Y-103699300D01*
G75*
G02*
X123043500Y-103461800I237500J0D01*
G01*
X123643500Y-103461800D01*
G75*
G02*
X123881000Y-103699300I0J-237500D01*
G01*
X123881000Y-104174300D01*
G75*
G02*
X123643500Y-104411800I-237500J0D01*
G01*
X123043500Y-104411800D01*
G75*
G02*
X122806000Y-104174300I0J237500D01*
G01*
G37*
%TD.AperFunction*%
%TD*%
%TO.P,C2,2*%
%TO.N,GND*%
%TA.AperFunction,SMDPad,CuDef*%
G36*
G01*
X124531000Y-106053900D02*
X124531000Y-105578900D01*
G75*
G02*
X124768500Y-105341400I237500J0D01*
G01*
X125368500Y-105341400D01*
G75*
G02*
X125606000Y-105578900I0J-237500D01*
G01*
X125606000Y-106053900D01*
G75*
G02*
X125368500Y-106291400I-237500J0D01*
G01*
X124768500Y-106291400D01*
G75*
G02*
X124531000Y-106053900I0J237500D01*
G01*
G37*
%TD.AperFunction*%
%TO.P,C2,1*%
%TO.N,Net-(C2-Pad1)*%
%TA.AperFunction,SMDPad,CuDef*%
G36*
G01*
X122806000Y-106053900D02*
X122806000Y-105578900D01*
G75*
G02*
X123043500Y-105341400I237500J0D01*
G01*
X123643500Y-105341400D01*
G75*
G02*
X123881000Y-105578900I0J-237500D01*
G01*
X123881000Y-106053900D01*
G75*
G02*
X123643500Y-106291400I-237500J0D01*
G01*
X123043500Y-106291400D01*
G75*
G02*
X122806000Y-106053900I0J237500D01*
G01*
G37*
%TD.AperFunction*%
%TD*%
%TO.P,C1,2*%
%TO.N,GND*%
%TA.AperFunction,SMDPad,CuDef*%
G36*
G01*
X120747500Y-102345500D02*
X120747500Y-101870500D01*
G75*
G02*
X120985000Y-101633000I237500J0D01*
G01*
X121585000Y-101633000D01*
G75*
G02*
X121822500Y-101870500I0J-237500D01*
G01*
X121822500Y-102345500D01*
G75*
G02*
X121585000Y-102583000I-237500J0D01*
G01*
X120985000Y-102583000D01*
G75*
G02*
X120747500Y-102345500I0J237500D01*
G01*
G37*
%TD.AperFunction*%
%TO.P,C1,1*%
%TO.N,+5V*%
%TA.AperFunction,SMDPad,CuDef*%
G36*
G01*
X119022500Y-102345500D02*
X119022500Y-101870500D01*
G75*
G02*
X119260000Y-101633000I237500J0D01*
G01*
X119860000Y-101633000D01*
G75*
G02*
X120097500Y-101870500I0J-237500D01*
G01*
X120097500Y-102345500D01*
G75*
G02*
X119860000Y-102583000I-237500J0D01*
G01*
X119260000Y-102583000D01*
G75*
G02*
X119022500Y-102345500I0J237500D01*
G01*
G37*
%TD.AperFunction*%
%TD*%
D13*
%TO.P,J1,B1*%
%TO.N,GND*%
X111789400Y-89793500D03*
%TO.P,J1,B2*%
%TO.N,/CSI_CLK_N*%
X111789400Y-90593500D03*
%TO.P,J1,B3*%
%TO.N,/CSI_CLK_P*%
X111789400Y-91393500D03*
%TO.P,J1,B4*%
%TO.N,GND*%
X111789400Y-92193500D03*
%TO.P,J1,B5*%
%TO.N,+1V8*%
X111789400Y-92993500D03*
%TO.P,J1,B6*%
X111789400Y-93793500D03*
%TO.P,J1,B7*%
%TO.N,GND*%
X111789400Y-94593500D03*
%TO.P,J1,B8*%
%TO.N,/+12V*%
X111789400Y-95393500D03*
%TO.P,J1,B9*%
X111789400Y-96193500D03*
%TO.P,J1,B10*%
%TO.N,/CSI_SYNC_1V8*%
X111789400Y-96993500D03*
%TO.P,J1,B11*%
%TO.N,/CSI_PWDN_1V8*%
X111789400Y-97793500D03*
%TO.P,J1,B12*%
%TO.N,GND*%
X111789400Y-98593500D03*
%TO.P,J1,B13*%
%TO.N,/+3V3*%
X111789400Y-99393500D03*
%TO.P,J1,B14*%
X111789400Y-100193500D03*
%TO.P,J1,B15*%
%TO.N,GND*%
X111789400Y-100993500D03*
%TO.P,J1,B16*%
%TO.N,+5V*%
X111789400Y-101793500D03*
%TO.P,J1,B17*%
X111789400Y-102593500D03*
%TO.P,J1,B18*%
%TO.N,GND*%
X111789400Y-103393500D03*
%TO.P,J1,A1*%
X105969400Y-90193500D03*
%TO.P,J1,A2*%
%TO.N,/CSI_D0_N*%
X105969400Y-90993500D03*
%TO.P,J1,A3*%
%TO.N,/CSI_D0_P*%
X105969400Y-91793500D03*
%TO.P,J1,A4*%
%TO.N,GND*%
X105969400Y-92593500D03*
%TO.P,J1,A5*%
%TO.N,/CSI_D1_N*%
X105969400Y-93393500D03*
%TO.P,J1,A6*%
%TO.N,/CSI_D1_P*%
X105969400Y-94193500D03*
%TO.P,J1,A7*%
%TO.N,GND*%
X105969400Y-94993500D03*
%TO.P,J1,A8*%
%TO.N,/CSI_MCLK_1V8*%
X105969400Y-95793500D03*
%TO.P,J1,A9*%
%TO.N,/CSI_nRST_1V8*%
X105969400Y-96593500D03*
%TO.P,J1,A10*%
%TO.N,/I2C_SDA_1V8*%
X105969400Y-97393500D03*
%TO.P,J1,A11*%
%TO.N,/I2C_SCL_1V8*%
X105969400Y-98193500D03*
%TO.P,J1,A12*%
%TO.N,GND*%
X105969400Y-98993500D03*
%TO.P,J1,A13*%
%TO.N,/CSI_D2_N*%
X105969400Y-99793500D03*
%TO.P,J1,A14*%
%TO.N,/CSI_D2_P*%
X105969400Y-100593500D03*
%TO.P,J1,A15*%
%TO.N,GND*%
X105969400Y-101393500D03*
%TO.P,J1,A16*%
%TO.N,/CSI_D3_N*%
X105969400Y-102193500D03*
%TO.P,J1,A17*%
%TO.N,/CSI_D3_P*%
X105969400Y-102993500D03*
%TO.P,J1,A18*%
%TO.N,GND*%
X105969400Y-103793500D03*
D14*
%TO.P,J1,S1*%
X114119400Y-87893500D03*
%TO.P,J1,S2*%
X110879400Y-87893500D03*
%TO.P,J1,S3*%
X106879400Y-87893500D03*
%TO.P,J1,S4*%
X104849400Y-87893500D03*
%TO.P,J1,S5*%
X115119400Y-105693500D03*
%TO.P,J1,S6*%
X110879400Y-105693500D03*
%TO.P,J1,S7*%
X106879400Y-105693500D03*
%TO.P,J1,S8*%
X104849400Y-105693500D03*
%TD*%
D15*
%TO.P,TP2,1*%
%TO.N,/CSI_SYNC_1V8*%
X114655600Y-96621600D03*
%TD*%
D16*
%TO.P,H4,1*%
%TO.N,N/C*%
X139552680Y-79159100D03*
%TD*%
%TO.P,H3,1*%
%TO.N,N/C*%
X139552680Y-113235740D03*
%TD*%
%TO.P,H2,1*%
%TO.N,N/C*%
X105714800Y-113235740D03*
%TD*%
%TO.P,H1,1*%
%TO.N,N/C*%
X105714800Y-79159100D03*
%TD*%
D15*
%TO.P,TP1,1*%
%TO.N,/+3V3*%
X114681000Y-100558600D03*
%TD*%
D17*
%TO.N,GND*%
X104129840Y-95011240D03*
X104140000Y-92608400D03*
X104109520Y-99024440D03*
X104091740Y-103794560D03*
X104140000Y-90703400D03*
X104096820Y-101396800D03*
X109080300Y-98996500D03*
X109131100Y-92595700D03*
X135077200Y-98983800D03*
X135077200Y-97383600D03*
X135128000Y-102108000D03*
X132892800Y-92583000D03*
X141401800Y-91821000D03*
X117119400Y-99161600D03*
X129260600Y-92557600D03*
X126009400Y-92532200D03*
X122859800Y-92532200D03*
X119837200Y-92557600D03*
X114046000Y-92557600D03*
X117094000Y-92532200D03*
X125984000Y-94945200D03*
X119837200Y-94970600D03*
X122834400Y-94996000D03*
X129209800Y-95021400D03*
X113995200Y-94945200D03*
X117094000Y-94970600D03*
X119837200Y-99187000D03*
X122834400Y-99187000D03*
X125984000Y-99187000D03*
X129184400Y-99187000D03*
X117144800Y-89509600D03*
X119862600Y-89535000D03*
X122859800Y-89560400D03*
X125984000Y-89560400D03*
X129235200Y-89560400D03*
X132867400Y-89560400D03*
X117094000Y-102031800D03*
X122834400Y-102082600D03*
X125984000Y-102082600D03*
X129184400Y-102108000D03*
X129184400Y-105511600D03*
X129184400Y-108407200D03*
X125907800Y-108356400D03*
X122809000Y-108381800D03*
X119786400Y-108381800D03*
X132892800Y-105435400D03*
X132892800Y-108305600D03*
%TO.N,/CSI_nRST_1V8*%
X107789400Y-96593500D03*
X141528800Y-95351600D03*
%TO.N,/CSI_MCLK_1V8*%
X108789400Y-95793500D03*
X140741400Y-93802200D03*
%TO.N,/I2C_SDA_1V8*%
X135102600Y-100482400D03*
X108789400Y-97393500D03*
%TO.N,/I2C_SCL_1V8*%
X107789400Y-98193500D03*
X134112000Y-100939600D03*
%TO.N,/CSI_D0_N*%
X139166600Y-91846400D03*
X108839400Y-90993500D03*
%TO.N,/CSI_D0_P*%
X138074400Y-91846400D03*
X107789400Y-91793500D03*
%TO.N,/CSI_D1_N*%
X107820460Y-93395800D03*
X134086600Y-93395800D03*
%TO.N,/CSI_D1_P*%
X135102600Y-93929200D03*
X108789400Y-94193500D03*
%TO.N,/CSI_D2_N*%
X107797600Y-99794060D03*
%TO.N,/CSI_D2_P*%
X108789400Y-100593500D03*
%TO.N,/CSI_D3_N*%
X108789400Y-102193500D03*
%TO.N,/CSI_D3_P*%
X107772200Y-102997000D03*
%TD*%
D18*
%TO.N,GND*%
X105969400Y-89213500D02*
X105989400Y-89193500D01*
X105969400Y-90193500D02*
X105969400Y-89213500D01*
X105969400Y-94993500D02*
X107789400Y-94993500D01*
D19*
X105969400Y-92593500D02*
X107008000Y-92593500D01*
D18*
X104167900Y-94993500D02*
X104140000Y-95021400D01*
X107789400Y-94993500D02*
X104167900Y-94993500D01*
X104154900Y-92593500D02*
X104140000Y-92608400D01*
X105969400Y-92593500D02*
X104154900Y-92593500D01*
X104104900Y-98993500D02*
X104068880Y-99029520D01*
X105969400Y-98993500D02*
X104104900Y-98993500D01*
X104112820Y-101393500D02*
X104068880Y-101437440D01*
X105969400Y-101393500D02*
X104112820Y-101393500D01*
X107008000Y-92593500D02*
X108789400Y-92593500D01*
X109189399Y-92193501D02*
X108789400Y-92593500D01*
X111789400Y-92193500D02*
X109189399Y-92193501D01*
X111789400Y-94593500D02*
X110788540Y-94593500D01*
X104140000Y-95001080D02*
X104129840Y-95011240D01*
X104140000Y-92608400D02*
X104140000Y-95001080D01*
X104155240Y-92593160D02*
X104140000Y-92608400D01*
X105966220Y-90190320D02*
X105969400Y-90193500D01*
X104129840Y-99004120D02*
X104109520Y-99024440D01*
X104129840Y-95011240D02*
X104129840Y-99004120D01*
X104109520Y-101424740D02*
X104096820Y-101437440D01*
X104109520Y-99024440D02*
X104109520Y-101424740D01*
X104091740Y-101442520D02*
X104096820Y-101437440D01*
X104091740Y-103794560D02*
X104091740Y-101442520D01*
X104092800Y-103793500D02*
X104091740Y-103794560D01*
X105969400Y-103793500D02*
X104092800Y-103793500D01*
X111793900Y-89789000D02*
X111789400Y-89793500D01*
X104649900Y-90193500D02*
X104140000Y-90703400D01*
X105969400Y-90193500D02*
X104649900Y-90193500D01*
X111789400Y-88803500D02*
X110879400Y-87893500D01*
X111789400Y-89793500D02*
X111789400Y-88803500D01*
X104155240Y-90190320D02*
X104155240Y-92593160D01*
D20*
X135080200Y-97386600D02*
X135077200Y-97383600D01*
X136974200Y-97386600D02*
X135080200Y-97386600D01*
X109483300Y-98593500D02*
X109080300Y-98996500D01*
X111789400Y-98593500D02*
X109483300Y-98593500D01*
X111789400Y-98593500D02*
X129175100Y-98593500D01*
X134086600Y-103505000D02*
X135102600Y-103505000D01*
X129175100Y-98593500D02*
X134086600Y-103505000D01*
X111789400Y-100993500D02*
X110213700Y-100993500D01*
X110213700Y-100993500D02*
X110083600Y-100863400D01*
X110083600Y-99999800D02*
X109080300Y-98996500D01*
X110083600Y-100863400D02*
X110083600Y-99999800D01*
X111789400Y-103393500D02*
X110226100Y-103393500D01*
X110213700Y-103381100D02*
X110213700Y-100993500D01*
X110226100Y-103393500D02*
X110213700Y-103381100D01*
D21*
X115961700Y-104851200D02*
X115119400Y-105693500D01*
X119195850Y-104851200D02*
X115961700Y-104851200D01*
D19*
X135077200Y-98983800D02*
X133705600Y-98983800D01*
X129315300Y-94593500D02*
X111789400Y-94593500D01*
X133705600Y-98983800D02*
X129315300Y-94593500D01*
X135077200Y-97383600D02*
X129946400Y-92252800D01*
X129887100Y-92193500D02*
X135077200Y-97383600D01*
X111789400Y-92193500D02*
X129887100Y-92193500D01*
D20*
X139784200Y-98906600D02*
X139754200Y-98936600D01*
X139784200Y-98186600D02*
X139784200Y-98906600D01*
X139938400Y-98186600D02*
X139948200Y-98196400D01*
X139784200Y-98186600D02*
X139938400Y-98186600D01*
X139948200Y-98196400D02*
X140741400Y-98196400D01*
X140741400Y-98196400D02*
X140741400Y-97459800D01*
X140668200Y-97386600D02*
X140741400Y-97459800D01*
X139784200Y-97386600D02*
X140668200Y-97386600D01*
X135124400Y-98936600D02*
X135077200Y-98983800D01*
X137004200Y-98936600D02*
X135124400Y-98936600D01*
X136923201Y-96191599D02*
X135735801Y-96191599D01*
X136974200Y-96186600D02*
X136928200Y-96186600D01*
X136928200Y-96186600D02*
X136923201Y-96191599D01*
X135077200Y-96850200D02*
X135077200Y-97383600D01*
X135735801Y-96191599D02*
X135077200Y-96850200D01*
X136974200Y-93066600D02*
X137004200Y-93036600D01*
X136974200Y-93786600D02*
X136974200Y-93066600D01*
X132892800Y-93234933D02*
X132892800Y-92583000D01*
X134644467Y-94986600D02*
X132892800Y-93234933D01*
X136974200Y-94986600D02*
X134644467Y-94986600D01*
X139784200Y-95786600D02*
X140465200Y-95786600D01*
X140668200Y-95989600D02*
X140668200Y-97386600D01*
X140465200Y-95786600D02*
X140668200Y-95989600D01*
D18*
X114119400Y-87893500D02*
X125085500Y-87893500D01*
X140065100Y-87893500D02*
X140868400Y-88696800D01*
X139754200Y-93036600D02*
X139754200Y-92427200D01*
X139754200Y-92427200D02*
X140360400Y-91821000D01*
X140360400Y-91821000D02*
X141401800Y-91821000D01*
D19*
X111789400Y-100993500D02*
X113312500Y-100993500D01*
X113312500Y-100993500D02*
X113944400Y-101625400D01*
X116535200Y-101625400D02*
X117627400Y-100533200D01*
X113944400Y-101625400D02*
X116535200Y-101625400D01*
X111789400Y-103393500D02*
X114899700Y-103393500D01*
X116357400Y-104851200D02*
X119195850Y-104851200D01*
X114899700Y-103393500D02*
X116357400Y-104851200D01*
D18*
X127142900Y-87893500D02*
X140065100Y-87893500D01*
X125085500Y-87893500D02*
X127142900Y-87893500D01*
D20*
X139772800Y-94186600D02*
X139767801Y-94191599D01*
X139784200Y-94186600D02*
X139772800Y-94186600D01*
D19*
X139754200Y-93036600D02*
X139170200Y-93036600D01*
X139170200Y-93036600D02*
X139090400Y-93116400D01*
X139090400Y-93116400D02*
X139090400Y-94030800D01*
X139090400Y-94030800D02*
X139251199Y-94191599D01*
D20*
X139571401Y-94191599D02*
X139251199Y-94191599D01*
X139576400Y-94186600D02*
X139571401Y-94191599D01*
X139784200Y-94186600D02*
X139576400Y-94186600D01*
D18*
%TO.N,/CSI_nRST_1V8*%
X105969400Y-96593500D02*
X107789400Y-96593500D01*
D20*
X139798600Y-94586600D02*
X139803599Y-94591599D01*
X139784200Y-94586600D02*
X139798600Y-94586600D01*
X139784200Y-94586600D02*
X141271800Y-94586600D01*
X141528800Y-94843600D02*
X141528800Y-95351600D01*
X141271800Y-94586600D02*
X141528800Y-94843600D01*
%TO.N,/CSI_PWDN_1V8*%
X137559201Y-99620601D02*
X137434002Y-99745800D01*
X131169100Y-97793500D02*
X111789400Y-97793500D01*
X137559201Y-97917599D02*
X137559201Y-99620601D01*
X137428202Y-97786600D02*
X137559201Y-97917599D01*
X136974200Y-97786600D02*
X137428202Y-97786600D01*
X137434002Y-99745800D02*
X133121400Y-99745800D01*
X133121400Y-99745800D02*
X131169100Y-97793500D01*
D21*
%TO.N,+5V*%
X111789400Y-101793500D02*
X111789400Y-102593500D01*
D18*
X111789400Y-102593500D02*
X112950900Y-102593500D01*
X111789400Y-101793500D02*
X112893300Y-101793500D01*
X112950900Y-101851100D02*
X112950900Y-102593500D01*
X112893300Y-101793500D02*
X112950900Y-101851100D01*
D19*
X117641401Y-103901199D02*
X117602000Y-103940600D01*
D22*
X119195850Y-103901199D02*
X117641401Y-103901199D01*
D19*
X119560000Y-102108000D02*
X119560000Y-102817000D01*
X119195850Y-103181150D02*
X119195850Y-103901199D01*
X119560000Y-102817000D02*
X119195850Y-103181150D01*
D22*
X112950900Y-102593500D02*
X115166500Y-102593500D01*
X116513600Y-103940600D02*
X117602000Y-103940600D01*
X115166500Y-102593500D02*
X116513600Y-103940600D01*
D19*
%TO.N,/CSI_SYNC_1V8*%
X114283700Y-96993500D02*
X114655600Y-96621600D01*
X111789400Y-96993500D02*
X114283700Y-96993500D01*
%TO.N,/+12V*%
X111789400Y-95393500D02*
X111789400Y-96193500D01*
D18*
%TO.N,/+3V3*%
X111789400Y-99393500D02*
X111789400Y-100193500D01*
D21*
X114252400Y-100193500D02*
X114617500Y-100558600D01*
X111789400Y-100193500D02*
X114252400Y-100193500D01*
D18*
%TO.N,/CSI_MCLK_1V8*%
X105969400Y-95793500D02*
X108789400Y-95793500D01*
D20*
X140725800Y-93786600D02*
X140741400Y-93802200D01*
X139784200Y-93786600D02*
X140725800Y-93786600D01*
D18*
%TO.N,/I2C_SDA_1V8*%
X105969400Y-97393500D02*
X108789400Y-97393500D01*
D20*
X138044590Y-99644343D02*
X137333533Y-100355400D01*
X138044590Y-97253947D02*
X138044590Y-99644343D01*
X139784200Y-94986600D02*
X139784200Y-94988000D01*
X139780601Y-94991599D02*
X139169870Y-94991599D01*
X139784200Y-94988000D02*
X139780601Y-94991599D01*
X139169870Y-94991599D02*
X138909189Y-95252280D01*
X138909189Y-95252280D02*
X138909189Y-96389349D01*
X138909189Y-96389349D02*
X138044590Y-97253947D01*
X137333533Y-100355400D02*
X137333533Y-100351133D01*
X137202266Y-100482400D02*
X135102600Y-100482400D01*
X137333533Y-100351133D02*
X137202266Y-100482400D01*
D19*
%TO.N,/I2C_SCL_1V8*%
X105969400Y-98193500D02*
X107789400Y-98193500D01*
D20*
X139741200Y-95386600D02*
X139736201Y-95391599D01*
X139784200Y-95386600D02*
X139741200Y-95386600D01*
X139269199Y-95447599D02*
X139330198Y-95386600D01*
X139269199Y-96538469D02*
X139269199Y-95447599D01*
X134112000Y-100939600D02*
X134511999Y-101339599D01*
X134511999Y-101339599D02*
X135337601Y-101339599D01*
X135337601Y-101339599D02*
X135676210Y-101000990D01*
X138404600Y-97403068D02*
X139269199Y-96538469D01*
X135676210Y-101000990D02*
X137197073Y-101000990D01*
X137197073Y-101000990D02*
X138404599Y-99793464D01*
X139330198Y-95386600D02*
X139784200Y-95386600D01*
X138404599Y-99793464D02*
X138404600Y-97403068D01*
D18*
%TO.N,+1V8*%
X111789400Y-93793500D02*
X111789400Y-92993500D01*
D20*
X136972400Y-98186600D02*
X136962600Y-98196400D01*
X136974200Y-98186600D02*
X136972400Y-98186600D01*
X136591400Y-98186600D02*
X136433200Y-98186600D01*
X136974200Y-98186600D02*
X136591400Y-98186600D01*
D19*
X136591400Y-98186600D02*
X136368984Y-98186600D01*
X134221200Y-98186600D02*
X129828100Y-93793500D01*
X136433200Y-98186600D02*
X134221200Y-98186600D01*
X129828100Y-93793500D02*
X111789400Y-93793500D01*
D20*
%TO.N,+2V8*%
X139784200Y-97786600D02*
X139322400Y-97786600D01*
D18*
X138591800Y-101981000D02*
X138591800Y-102886000D01*
X123307899Y-103901199D02*
X123343500Y-103936800D01*
X121748550Y-103901199D02*
X123307899Y-103901199D01*
X121748550Y-103901199D02*
X121168201Y-103901199D01*
X121168201Y-103901199D02*
X120878600Y-104190800D01*
X120878600Y-104190800D02*
X120878600Y-106578400D01*
X120878600Y-106578400D02*
X121259600Y-106959400D01*
X134518400Y-106959400D02*
X121259600Y-106959400D01*
X138591800Y-102886000D02*
X134518400Y-106959400D01*
D19*
X139179199Y-100381466D02*
X138591800Y-100968865D01*
X139220800Y-97786600D02*
X139179199Y-97828201D01*
X138591800Y-100968865D02*
X138591800Y-101981000D01*
X139179199Y-97828201D02*
X139179199Y-100381466D01*
X139322400Y-97786600D02*
X139220800Y-97786600D01*
%TO.N,Net-(C2-Pad1)*%
X121763749Y-105816400D02*
X121748550Y-105801201D01*
X123343500Y-105816400D02*
X121763749Y-105816400D01*
%TO.N,Net-(R1-Pad2)*%
X117637601Y-105801201D02*
X117602000Y-105765600D01*
X119195850Y-105801201D02*
X117637601Y-105801201D01*
%TO.N,/CSI_D0_N*%
X105969400Y-90993500D02*
X108839400Y-90993500D01*
D20*
X136974200Y-96986600D02*
X137537333Y-96986600D01*
X137537333Y-96986600D02*
X137849211Y-96674722D01*
X138461801Y-92551199D02*
X139166600Y-91846400D01*
X136974200Y-96986600D02*
X137537334Y-96986600D01*
X138461801Y-96062133D02*
X138461801Y-92551199D01*
X137537334Y-96986600D02*
X138461801Y-96062133D01*
D19*
%TO.N,/CSI_D0_P*%
X107789400Y-91793500D02*
X105969400Y-91793500D01*
D20*
X137433201Y-96581601D02*
X137489201Y-96525601D01*
X136974200Y-96586600D02*
X136979199Y-96581601D01*
X136979199Y-96581601D02*
X137433201Y-96581601D01*
X137428202Y-96586600D02*
X136974200Y-96586600D01*
X138090397Y-95924405D02*
X137428202Y-96586600D01*
X138090397Y-91862397D02*
X138074400Y-91846400D01*
X138090397Y-95924405D02*
X138090397Y-91862397D01*
%TO.N,/CSI_CLK_N*%
X137428202Y-95786600D02*
X136974200Y-95786600D01*
X137693400Y-95521402D02*
X137428202Y-95786600D01*
X135800102Y-90593500D02*
X137693400Y-92486798D01*
X137693400Y-92486798D02*
X137693400Y-95521402D01*
X111789400Y-90593500D02*
X135800102Y-90593500D01*
%TO.N,/CSI_CLK_P*%
X111789400Y-91393500D02*
X127334500Y-91393500D01*
X130113298Y-91393500D02*
X127334500Y-91393500D01*
X134106398Y-95386600D02*
X130113298Y-91393500D01*
X136974200Y-95386600D02*
X134106398Y-95386600D01*
D19*
%TO.N,/CSI_D1_N*%
X105971700Y-93395800D02*
X105969400Y-93393500D01*
X107820460Y-93395800D02*
X105971700Y-93395800D01*
D20*
X137036000Y-94586600D02*
X137040999Y-94581601D01*
X136974200Y-94586600D02*
X137036000Y-94586600D01*
X134086600Y-93919602D02*
X134086600Y-93395800D01*
X134776199Y-94609201D02*
X134086600Y-93919602D01*
X135429001Y-94609201D02*
X134776199Y-94609201D01*
X135451602Y-94586600D02*
X135429001Y-94609201D01*
X136974200Y-94586600D02*
X135451602Y-94586600D01*
D19*
%TO.N,/CSI_D1_P*%
X105969400Y-94193500D02*
X108789400Y-94193500D01*
D20*
X135102600Y-93929200D02*
X135940800Y-93929200D01*
X136198200Y-94186600D02*
X136974200Y-94186600D01*
X135940800Y-93929200D02*
X136198200Y-94186600D01*
D19*
%TO.N,/CSI_D2_N*%
X107797040Y-99793500D02*
X107797600Y-99794060D01*
X105969400Y-99793500D02*
X107797040Y-99793500D01*
%TO.N,/CSI_D2_P*%
X105969400Y-100593500D02*
X108789400Y-100593500D01*
%TO.N,/CSI_D3_N*%
X105969400Y-102193500D02*
X108789400Y-102193500D01*
%TO.N,/CSI_D3_P*%
X107768700Y-102993500D02*
X107772200Y-102997000D01*
X105969400Y-102993500D02*
X107768700Y-102993500D01*
D20*
%TO.N,/AF-2V8*%
X139784200Y-96986600D02*
X139639800Y-96986600D01*
X139639800Y-96986600D02*
X139634801Y-96991599D01*
X139330198Y-96986600D02*
X138799189Y-97517609D01*
X139784200Y-96986600D02*
X139330198Y-96986600D01*
X137042250Y-101981000D02*
X136591800Y-101981000D01*
X138799189Y-100224061D02*
X137042250Y-101981000D01*
X138799189Y-97517609D02*
X138799189Y-100224061D01*
%TD*%
D23*
%TO.N,GND*%
X138134115Y-76697330D02*
X137745473Y-76957012D01*
X137350592Y-77351893D01*
X137040336Y-77816224D01*
X136826628Y-78332161D01*
X136717680Y-78879877D01*
X136717680Y-79438323D01*
X136826628Y-79986039D01*
X137040336Y-80501976D01*
X137350592Y-80966307D01*
X137745473Y-81361188D01*
X138209804Y-81671444D01*
X138725741Y-81885152D01*
X139273457Y-81994100D01*
X139831903Y-81994100D01*
X140379619Y-81885152D01*
X140895556Y-81671444D01*
X141359887Y-81361188D01*
X141754768Y-80966307D01*
X142065024Y-80501976D01*
X142088000Y-80446507D01*
X142088000Y-94397928D01*
X142080856Y-94389223D01*
X142059215Y-94362853D01*
X142059212Y-94362850D01*
X142036826Y-94335573D01*
X142009550Y-94313188D01*
X141802220Y-94105859D01*
X141779827Y-94078573D01*
X141747053Y-94051676D01*
X141776400Y-93904139D01*
X141776400Y-93700261D01*
X141736626Y-93500302D01*
X141658605Y-93311944D01*
X141545337Y-93142426D01*
X141401174Y-92998263D01*
X141231656Y-92884995D01*
X141043298Y-92806974D01*
X140843339Y-92767200D01*
X140647850Y-92767200D01*
X140664200Y-92750850D01*
X140667257Y-92581011D01*
X140655857Y-92456448D01*
X140620376Y-92336501D01*
X140562175Y-92225782D01*
X140483493Y-92128545D01*
X140387353Y-92048526D01*
X140277449Y-91988800D01*
X140198438Y-91964235D01*
X140201600Y-91948339D01*
X140201600Y-91744461D01*
X140161826Y-91544502D01*
X140083805Y-91356144D01*
X139970537Y-91186626D01*
X139826374Y-91042463D01*
X139656856Y-90929195D01*
X139468498Y-90851174D01*
X139268539Y-90811400D01*
X139064661Y-90811400D01*
X138864702Y-90851174D01*
X138676344Y-90929195D01*
X138620500Y-90966509D01*
X138564656Y-90929195D01*
X138376298Y-90851174D01*
X138176339Y-90811400D01*
X137972461Y-90811400D01*
X137772502Y-90851174D01*
X137584144Y-90929195D01*
X137414626Y-91042463D01*
X137337427Y-91119662D01*
X136330522Y-90112759D01*
X136308129Y-90085473D01*
X136199256Y-89996123D01*
X136075044Y-89929730D01*
X135940266Y-89888846D01*
X135835222Y-89878500D01*
X135835212Y-89878500D01*
X135800102Y-89875042D01*
X135764992Y-89878500D01*
X113202650Y-89878500D01*
X113165650Y-89841500D01*
X112956969Y-89841500D01*
X112933580Y-89828998D01*
X112813882Y-89792688D01*
X112689400Y-89780428D01*
X110889400Y-89780428D01*
X110764918Y-89792688D01*
X110645220Y-89828998D01*
X110621831Y-89841500D01*
X110413150Y-89841500D01*
X110254400Y-90000250D01*
X110265265Y-90101130D01*
X110294336Y-90192654D01*
X110263588Y-90294018D01*
X110251328Y-90418500D01*
X110251328Y-90768500D01*
X110263588Y-90892982D01*
X110294080Y-90993500D01*
X110263588Y-91094018D01*
X110251328Y-91218500D01*
X110251328Y-91568500D01*
X110263588Y-91692982D01*
X110294336Y-91794346D01*
X110265265Y-91885870D01*
X110254400Y-91986750D01*
X110413150Y-92145500D01*
X110621831Y-92145500D01*
X110645220Y-92158002D01*
X110762241Y-92193500D01*
X110645220Y-92228998D01*
X110621831Y-92241500D01*
X110413150Y-92241500D01*
X110254400Y-92400250D01*
X110265265Y-92501130D01*
X110294336Y-92592654D01*
X110263588Y-92694018D01*
X110251328Y-92818500D01*
X110251328Y-93168500D01*
X110263588Y-93292982D01*
X110294080Y-93393500D01*
X110263588Y-93494018D01*
X110251328Y-93618500D01*
X110251328Y-93968500D01*
X110263588Y-94092982D01*
X110294336Y-94194346D01*
X110265265Y-94285870D01*
X110254400Y-94386750D01*
X110413150Y-94545500D01*
X110621831Y-94545500D01*
X110645220Y-94558002D01*
X110762241Y-94593500D01*
X110645220Y-94628998D01*
X110621831Y-94641500D01*
X110413150Y-94641500D01*
X110254400Y-94800250D01*
X110265265Y-94901130D01*
X110294336Y-94992654D01*
X110263588Y-95094018D01*
X110251328Y-95218500D01*
X110251328Y-95568500D01*
X110263588Y-95692982D01*
X110294080Y-95793500D01*
X110263588Y-95894018D01*
X110251328Y-96018500D01*
X110251328Y-96368500D01*
X110263588Y-96492982D01*
X110294080Y-96593500D01*
X110263588Y-96694018D01*
X110251328Y-96818500D01*
X110251328Y-97168500D01*
X110263588Y-97292982D01*
X110294080Y-97393500D01*
X110263588Y-97494018D01*
X110251328Y-97618500D01*
X110251328Y-97968500D01*
X110263588Y-98092982D01*
X110294336Y-98194346D01*
X110265265Y-98285870D01*
X110254400Y-98386750D01*
X110413150Y-98545500D01*
X110621831Y-98545500D01*
X110645220Y-98558002D01*
X110762241Y-98593500D01*
X110645220Y-98628998D01*
X110621831Y-98641500D01*
X110413150Y-98641500D01*
X110254400Y-98800250D01*
X110265265Y-98901130D01*
X110294336Y-98992654D01*
X110263588Y-99094018D01*
X110251328Y-99218500D01*
X110251328Y-99568500D01*
X110263588Y-99692982D01*
X110294080Y-99793500D01*
X110263588Y-99894018D01*
X110251328Y-100018500D01*
X110251328Y-100368500D01*
X110263588Y-100492982D01*
X110294336Y-100594346D01*
X110265265Y-100685870D01*
X110254400Y-100786750D01*
X110413150Y-100945500D01*
X110621831Y-100945500D01*
X110645220Y-100958002D01*
X110762241Y-100993500D01*
X110645220Y-101028998D01*
X110621831Y-101041500D01*
X110413150Y-101041500D01*
X110254400Y-101200250D01*
X110265265Y-101301130D01*
X110294336Y-101392654D01*
X110263588Y-101494018D01*
X110251328Y-101618500D01*
X110251328Y-101968500D01*
X110263588Y-102092982D01*
X110294080Y-102193500D01*
X110263588Y-102294018D01*
X110251328Y-102418500D01*
X110251328Y-102768500D01*
X110263588Y-102892982D01*
X110294336Y-102994346D01*
X110265265Y-103085870D01*
X110254400Y-103186750D01*
X110413150Y-103345500D01*
X110621831Y-103345500D01*
X110645220Y-103358002D01*
X110764918Y-103394312D01*
X110889400Y-103406572D01*
X111936400Y-103406572D01*
X111936400Y-103441500D01*
X111916400Y-103441500D01*
X111916400Y-104044750D01*
X112075150Y-104203500D01*
X112681081Y-104206518D01*
X112805712Y-104195881D01*
X112925873Y-104161135D01*
X113036947Y-104103614D01*
X113134664Y-104025529D01*
X113215271Y-103929881D01*
X113275668Y-103820345D01*
X113313535Y-103701130D01*
X113324400Y-103600250D01*
X113244652Y-103520502D01*
X113324400Y-103520502D01*
X113324400Y-103403500D01*
X114830988Y-103403500D01*
X115912705Y-104485218D01*
X115938072Y-104516128D01*
X116005810Y-104571719D01*
X116061410Y-104617349D01*
X116108175Y-104642345D01*
X116202127Y-104692563D01*
X116354812Y-104738880D01*
X116473809Y-104750600D01*
X116473811Y-104750600D01*
X116513599Y-104754519D01*
X116553387Y-104750600D01*
X116696856Y-104750600D01*
X116745377Y-104809723D01*
X116798232Y-104853100D01*
X116745377Y-104896477D01*
X116636488Y-105029158D01*
X116555577Y-105180533D01*
X116505752Y-105344784D01*
X116488928Y-105515600D01*
X116488928Y-106015600D01*
X116505752Y-106186416D01*
X116555577Y-106350667D01*
X116636488Y-106502042D01*
X116745377Y-106634723D01*
X116878058Y-106743612D01*
X117029433Y-106824523D01*
X117193684Y-106874348D01*
X117364500Y-106891172D01*
X117839500Y-106891172D01*
X118010316Y-106874348D01*
X118174567Y-106824523D01*
X118325942Y-106743612D01*
X118457884Y-106635330D01*
X118475420Y-106644703D01*
X118595118Y-106681013D01*
X118719600Y-106693273D01*
X119672100Y-106693273D01*
X119796582Y-106681013D01*
X119916280Y-106644703D01*
X120026594Y-106585738D01*
X120118601Y-106510230D01*
X120118601Y-106541068D01*
X120114924Y-106578400D01*
X120118601Y-106615733D01*
X120129598Y-106727386D01*
X120134520Y-106743612D01*
X120173054Y-106870646D01*
X120243626Y-107002676D01*
X120314801Y-107089402D01*
X120338600Y-107118401D01*
X120367598Y-107142199D01*
X120695796Y-107470397D01*
X120719599Y-107499401D01*
X120835324Y-107594374D01*
X120967353Y-107664946D01*
X121110614Y-107708403D01*
X121222267Y-107719400D01*
X121222276Y-107719400D01*
X121259599Y-107723076D01*
X121296922Y-107719400D01*
X134481078Y-107719400D01*
X134518400Y-107723076D01*
X134555722Y-107719400D01*
X134555733Y-107719400D01*
X134667386Y-107708403D01*
X134810647Y-107664946D01*
X134942676Y-107594374D01*
X135058401Y-107499401D01*
X135082204Y-107470397D01*
X139102803Y-103449799D01*
X139131801Y-103426001D01*
X139226774Y-103310276D01*
X139253669Y-103259960D01*
X139281651Y-103251472D01*
X139435187Y-103169405D01*
X139569762Y-103058962D01*
X139680205Y-102924387D01*
X139762272Y-102770851D01*
X139812808Y-102604255D01*
X139829872Y-102431001D01*
X139829872Y-101530999D01*
X139812808Y-101357745D01*
X139762272Y-101191149D01*
X139680205Y-101037613D01*
X139627148Y-100972963D01*
X139673392Y-100926720D01*
X139701437Y-100903704D01*
X139793286Y-100791786D01*
X139813187Y-100754554D01*
X139861536Y-100664100D01*
X139903564Y-100525551D01*
X139917755Y-100381466D01*
X139914199Y-100345361D01*
X139914199Y-99905849D01*
X140039950Y-100031600D01*
X140158005Y-100021536D01*
X140277449Y-99984400D01*
X140387353Y-99924674D01*
X140483493Y-99844655D01*
X140562175Y-99747418D01*
X140620376Y-99636699D01*
X140655857Y-99516752D01*
X140667257Y-99392189D01*
X140664200Y-99222350D01*
X140505450Y-99063600D01*
X139914199Y-99063600D01*
X139914199Y-98809600D01*
X139923950Y-98809600D01*
X140050950Y-98936600D01*
X140118826Y-98931846D01*
X140239867Y-98900300D01*
X140352427Y-98845747D01*
X140400208Y-98809600D01*
X140505450Y-98809600D01*
X140664200Y-98650850D01*
X140667257Y-98481011D01*
X140655857Y-98356448D01*
X140653681Y-98349093D01*
X140654200Y-98345350D01*
X140651891Y-98343041D01*
X140620376Y-98236501D01*
X140590544Y-98179750D01*
X140608702Y-98145780D01*
X140640241Y-98041809D01*
X140654200Y-98027850D01*
X140648728Y-97988355D01*
X140657272Y-97901600D01*
X140657272Y-97671600D01*
X140648728Y-97584845D01*
X140654200Y-97545350D01*
X140640241Y-97531391D01*
X140608702Y-97427420D01*
X140586883Y-97386600D01*
X140608702Y-97345780D01*
X140640241Y-97241809D01*
X140654200Y-97227850D01*
X140648728Y-97188355D01*
X140657272Y-97101600D01*
X140657272Y-96871600D01*
X140648901Y-96786600D01*
X140657272Y-96701600D01*
X140657272Y-96471600D01*
X140648901Y-96386600D01*
X140657272Y-96301600D01*
X140657272Y-96071600D01*
X140648728Y-95984845D01*
X140654200Y-95945350D01*
X140640241Y-95931391D01*
X140634845Y-95913602D01*
X140654200Y-95913602D01*
X140654200Y-95905619D01*
X140724863Y-96011374D01*
X140869026Y-96155537D01*
X141038544Y-96268805D01*
X141226902Y-96346826D01*
X141426861Y-96386600D01*
X141630739Y-96386600D01*
X141830698Y-96346826D01*
X142019056Y-96268805D01*
X142088001Y-96222738D01*
X142088001Y-111948335D01*
X142065024Y-111892864D01*
X141754768Y-111428533D01*
X141359887Y-111033652D01*
X140895556Y-110723396D01*
X140379619Y-110509688D01*
X139831903Y-110400740D01*
X139273457Y-110400740D01*
X138725741Y-110509688D01*
X138209804Y-110723396D01*
X137745473Y-111033652D01*
X137350592Y-111428533D01*
X137040336Y-111892864D01*
X136826628Y-112408801D01*
X136717680Y-112956517D01*
X136717680Y-113514963D01*
X136826628Y-114062679D01*
X137040336Y-114578616D01*
X137350592Y-115042947D01*
X137745473Y-115437828D01*
X138209804Y-115748084D01*
X138479721Y-115859887D01*
X106793484Y-115857516D01*
X107057676Y-115748084D01*
X107522007Y-115437828D01*
X107916888Y-115042947D01*
X108227144Y-114578616D01*
X108440852Y-114062679D01*
X108549800Y-113514963D01*
X108549800Y-112956517D01*
X108440852Y-112408801D01*
X108227144Y-111892864D01*
X107916888Y-111428533D01*
X107522007Y-111033652D01*
X107057676Y-110723396D01*
X106541739Y-110509688D01*
X105994023Y-110400740D01*
X105435577Y-110400740D01*
X104887861Y-110509688D01*
X104371924Y-110723396D01*
X103907593Y-111033652D01*
X103512712Y-111428533D01*
X103202456Y-111892864D01*
X102988748Y-112408801D01*
X102972100Y-112492496D01*
X102978693Y-106581887D01*
X104140618Y-106581887D01*
X104194493Y-106810968D01*
X104425084Y-106917263D01*
X104671981Y-106976528D01*
X104925696Y-106986488D01*
X105176479Y-106946759D01*
X105414693Y-106858868D01*
X105504307Y-106810968D01*
X105558182Y-106581887D01*
X106170618Y-106581887D01*
X106224493Y-106810968D01*
X106455084Y-106917263D01*
X106701981Y-106976528D01*
X106955696Y-106986488D01*
X107206479Y-106946759D01*
X107444693Y-106858868D01*
X107534307Y-106810968D01*
X107588182Y-106581887D01*
X110170618Y-106581887D01*
X110224493Y-106810968D01*
X110455084Y-106917263D01*
X110701981Y-106976528D01*
X110955696Y-106986488D01*
X111206479Y-106946759D01*
X111444693Y-106858868D01*
X111534307Y-106810968D01*
X111588182Y-106581887D01*
X114410618Y-106581887D01*
X114464493Y-106810968D01*
X114695084Y-106917263D01*
X114941981Y-106976528D01*
X115195696Y-106986488D01*
X115446479Y-106946759D01*
X115684693Y-106858868D01*
X115774307Y-106810968D01*
X115828182Y-106581887D01*
X115119400Y-105873105D01*
X114410618Y-106581887D01*
X111588182Y-106581887D01*
X110879400Y-105873105D01*
X110170618Y-106581887D01*
X107588182Y-106581887D01*
X106879400Y-105873105D01*
X106170618Y-106581887D01*
X105558182Y-106581887D01*
X104849400Y-105873105D01*
X104140618Y-106581887D01*
X102978693Y-106581887D01*
X102979599Y-105769796D01*
X103556412Y-105769796D01*
X103596141Y-106020579D01*
X103684032Y-106258793D01*
X103731932Y-106348407D01*
X103961013Y-106402282D01*
X104669795Y-105693500D01*
X105029005Y-105693500D01*
X105737787Y-106402282D01*
X105864400Y-106372505D01*
X105991013Y-106402282D01*
X106699795Y-105693500D01*
X105991013Y-104984718D01*
X105864400Y-105014495D01*
X105737787Y-104984718D01*
X105029005Y-105693500D01*
X104669795Y-105693500D01*
X103961013Y-104984718D01*
X103731932Y-105038593D01*
X103625637Y-105269184D01*
X103566372Y-105516081D01*
X103556412Y-105769796D01*
X102979599Y-105769796D01*
X102980675Y-104805113D01*
X104140618Y-104805113D01*
X104849400Y-105513895D01*
X105558182Y-104805113D01*
X105510969Y-104604360D01*
X105683650Y-104603500D01*
X105842400Y-104444750D01*
X105842400Y-103841500D01*
X104593150Y-103841500D01*
X104434400Y-104000250D01*
X104445265Y-104101130D01*
X104483132Y-104220345D01*
X104543529Y-104329881D01*
X104623082Y-104424278D01*
X104522321Y-104440241D01*
X104284107Y-104528132D01*
X104194493Y-104576032D01*
X104140618Y-104805113D01*
X102980675Y-104805113D01*
X102996276Y-90818500D01*
X104431328Y-90818500D01*
X104431328Y-91168500D01*
X104443588Y-91292982D01*
X104474080Y-91393500D01*
X104443588Y-91494018D01*
X104431328Y-91618500D01*
X104431328Y-91968500D01*
X104443588Y-92092982D01*
X104474336Y-92194346D01*
X104445265Y-92285870D01*
X104434400Y-92386750D01*
X104593150Y-92545500D01*
X104801831Y-92545500D01*
X104825220Y-92558002D01*
X104942241Y-92593500D01*
X104825220Y-92628998D01*
X104801831Y-92641500D01*
X104593150Y-92641500D01*
X104434400Y-92800250D01*
X104445265Y-92901130D01*
X104474336Y-92992654D01*
X104443588Y-93094018D01*
X104431328Y-93218500D01*
X104431328Y-93568500D01*
X104443588Y-93692982D01*
X104474080Y-93793500D01*
X104443588Y-93894018D01*
X104431328Y-94018500D01*
X104431328Y-94368500D01*
X104443588Y-94492982D01*
X104474336Y-94594346D01*
X104445265Y-94685870D01*
X104434400Y-94786750D01*
X104593150Y-94945500D01*
X104801831Y-94945500D01*
X104825220Y-94958002D01*
X104942241Y-94993500D01*
X104825220Y-95028998D01*
X104801831Y-95041500D01*
X104593150Y-95041500D01*
X104434400Y-95200250D01*
X104445265Y-95301130D01*
X104474336Y-95392654D01*
X104443588Y-95494018D01*
X104431328Y-95618500D01*
X104431328Y-95968500D01*
X104443588Y-96092982D01*
X104474080Y-96193500D01*
X104443588Y-96294018D01*
X104431328Y-96418500D01*
X104431328Y-96768500D01*
X104443588Y-96892982D01*
X104474080Y-96993500D01*
X104443588Y-97094018D01*
X104431328Y-97218500D01*
X104431328Y-97568500D01*
X104443588Y-97692982D01*
X104474080Y-97793500D01*
X104443588Y-97894018D01*
X104431328Y-98018500D01*
X104431328Y-98368500D01*
X104443588Y-98492982D01*
X104474336Y-98594346D01*
X104445265Y-98685870D01*
X104434400Y-98786750D01*
X104593150Y-98945500D01*
X104801831Y-98945500D01*
X104825220Y-98958002D01*
X104942241Y-98993500D01*
X104825220Y-99028998D01*
X104801831Y-99041500D01*
X104593150Y-99041500D01*
X104434400Y-99200250D01*
X104445265Y-99301130D01*
X104474336Y-99392654D01*
X104443588Y-99494018D01*
X104431328Y-99618500D01*
X104431328Y-99968500D01*
X104443588Y-100092982D01*
X104474080Y-100193500D01*
X104443588Y-100294018D01*
X104431328Y-100418500D01*
X104431328Y-100768500D01*
X104443588Y-100892982D01*
X104474336Y-100994346D01*
X104445265Y-101085870D01*
X104434400Y-101186750D01*
X104593150Y-101345500D01*
X104801831Y-101345500D01*
X104825220Y-101358002D01*
X104942241Y-101393500D01*
X104825220Y-101428998D01*
X104801831Y-101441500D01*
X104593150Y-101441500D01*
X104434400Y-101600250D01*
X104445265Y-101701130D01*
X104474336Y-101792654D01*
X104443588Y-101894018D01*
X104431328Y-102018500D01*
X104431328Y-102368500D01*
X104443588Y-102492982D01*
X104474080Y-102593500D01*
X104443588Y-102694018D01*
X104431328Y-102818500D01*
X104431328Y-103168500D01*
X104443588Y-103292982D01*
X104474336Y-103394346D01*
X104445265Y-103485870D01*
X104434400Y-103586750D01*
X104593150Y-103745500D01*
X104801831Y-103745500D01*
X104825220Y-103758002D01*
X104944918Y-103794312D01*
X105069400Y-103806572D01*
X106116400Y-103806572D01*
X106116400Y-103841500D01*
X106096400Y-103841500D01*
X106096400Y-104444750D01*
X106226571Y-104574921D01*
X106224493Y-104576032D01*
X106170618Y-104805113D01*
X106879400Y-105513895D01*
X106893543Y-105499753D01*
X107073148Y-105679358D01*
X107059005Y-105693500D01*
X107767787Y-106402282D01*
X107996868Y-106348407D01*
X108103163Y-106117816D01*
X108133611Y-105990971D01*
X108211515Y-106043025D01*
X108468118Y-106149314D01*
X108740527Y-106203500D01*
X109018273Y-106203500D01*
X109290682Y-106149314D01*
X109547285Y-106043025D01*
X109621808Y-105993230D01*
X109626141Y-106020579D01*
X109714032Y-106258793D01*
X109761932Y-106348407D01*
X109991013Y-106402282D01*
X110699795Y-105693500D01*
X111059005Y-105693500D01*
X111767787Y-106402282D01*
X111996868Y-106348407D01*
X112103163Y-106117816D01*
X112162428Y-105870919D01*
X112166397Y-105769796D01*
X113826412Y-105769796D01*
X113866141Y-106020579D01*
X113954032Y-106258793D01*
X114001932Y-106348407D01*
X114231013Y-106402282D01*
X114939795Y-105693500D01*
X115299005Y-105693500D01*
X116007787Y-106402282D01*
X116236868Y-106348407D01*
X116343163Y-106117816D01*
X116402428Y-105870919D01*
X116412388Y-105617204D01*
X116372659Y-105366421D01*
X116284768Y-105128207D01*
X116236868Y-105038593D01*
X116007787Y-104984718D01*
X115299005Y-105693500D01*
X114939795Y-105693500D01*
X114231013Y-104984718D01*
X114001932Y-105038593D01*
X113895637Y-105269184D01*
X113836372Y-105516081D01*
X113826412Y-105769796D01*
X112166397Y-105769796D01*
X112172388Y-105617204D01*
X112132659Y-105366421D01*
X112044768Y-105128207D01*
X111996868Y-105038593D01*
X111767787Y-104984718D01*
X111059005Y-105693500D01*
X110699795Y-105693500D01*
X110685653Y-105679358D01*
X110865258Y-105499753D01*
X110879400Y-105513895D01*
X111588182Y-104805113D01*
X114410618Y-104805113D01*
X115119400Y-105513895D01*
X115828182Y-104805113D01*
X115774307Y-104576032D01*
X115543716Y-104469737D01*
X115296819Y-104410472D01*
X115043104Y-104400512D01*
X114792321Y-104440241D01*
X114554107Y-104528132D01*
X114464493Y-104576032D01*
X114410618Y-104805113D01*
X111588182Y-104805113D01*
X111534307Y-104576032D01*
X111303716Y-104469737D01*
X111056819Y-104410472D01*
X110803104Y-104400512D01*
X110552321Y-104440241D01*
X110314107Y-104528132D01*
X110269031Y-104552226D01*
X110235214Y-104382218D01*
X110128925Y-104125615D01*
X109974618Y-103894678D01*
X109778222Y-103698282D01*
X109631507Y-103600250D01*
X110254400Y-103600250D01*
X110265265Y-103701130D01*
X110303132Y-103820345D01*
X110363529Y-103929881D01*
X110444136Y-104025529D01*
X110541853Y-104103614D01*
X110652927Y-104161135D01*
X110773088Y-104195881D01*
X110897719Y-104206518D01*
X111503650Y-104203500D01*
X111662400Y-104044750D01*
X111662400Y-103441500D01*
X110413150Y-103441500D01*
X110254400Y-103600250D01*
X109631507Y-103600250D01*
X109547285Y-103543975D01*
X109290682Y-103437686D01*
X109018273Y-103383500D01*
X108740527Y-103383500D01*
X108731651Y-103385266D01*
X108767426Y-103298898D01*
X108781429Y-103228500D01*
X108891339Y-103228500D01*
X109091298Y-103188726D01*
X109279656Y-103110705D01*
X109449174Y-102997437D01*
X109593337Y-102853274D01*
X109706605Y-102683756D01*
X109784626Y-102495398D01*
X109824400Y-102295439D01*
X109824400Y-102091561D01*
X109784626Y-101891602D01*
X109706605Y-101703244D01*
X109593337Y-101533726D01*
X109453111Y-101393500D01*
X109593337Y-101253274D01*
X109706605Y-101083756D01*
X109784626Y-100895398D01*
X109824400Y-100695439D01*
X109824400Y-100491561D01*
X109784626Y-100291602D01*
X109706605Y-100103244D01*
X109593337Y-99933726D01*
X109449174Y-99789563D01*
X109279656Y-99676295D01*
X109091298Y-99598274D01*
X108891339Y-99558500D01*
X108806021Y-99558500D01*
X108792826Y-99492162D01*
X108714805Y-99303804D01*
X108601537Y-99134286D01*
X108457374Y-98990123D01*
X108456843Y-98989768D01*
X108593337Y-98853274D01*
X108706605Y-98683756D01*
X108784626Y-98495398D01*
X108797933Y-98428500D01*
X108891339Y-98428500D01*
X109091298Y-98388726D01*
X109279656Y-98310705D01*
X109449174Y-98197437D01*
X109593337Y-98053274D01*
X109706605Y-97883756D01*
X109784626Y-97695398D01*
X109824400Y-97495439D01*
X109824400Y-97291561D01*
X109784626Y-97091602D01*
X109706605Y-96903244D01*
X109593337Y-96733726D01*
X109453111Y-96593500D01*
X109593337Y-96453274D01*
X109706605Y-96283756D01*
X109784626Y-96095398D01*
X109824400Y-95895439D01*
X109824400Y-95691561D01*
X109784626Y-95491602D01*
X109706605Y-95303244D01*
X109593337Y-95133726D01*
X109453111Y-94993500D01*
X109593337Y-94853274D01*
X109706605Y-94683756D01*
X109784626Y-94495398D01*
X109824400Y-94295439D01*
X109824400Y-94091561D01*
X109784626Y-93891602D01*
X109706605Y-93703244D01*
X109593337Y-93533726D01*
X109449174Y-93389563D01*
X109279656Y-93276295D01*
X109091298Y-93198274D01*
X108891339Y-93158500D01*
X108828535Y-93158500D01*
X108815686Y-93093902D01*
X108737665Y-92905544D01*
X108624397Y-92736026D01*
X108480234Y-92591863D01*
X108464956Y-92581655D01*
X108593337Y-92453274D01*
X108706605Y-92283756D01*
X108784626Y-92095398D01*
X108797933Y-92028500D01*
X108941339Y-92028500D01*
X109141298Y-91988726D01*
X109329656Y-91910705D01*
X109499174Y-91797437D01*
X109643337Y-91653274D01*
X109756605Y-91483756D01*
X109834626Y-91295398D01*
X109874400Y-91095439D01*
X109874400Y-90891561D01*
X109834626Y-90691602D01*
X109756605Y-90503244D01*
X109643337Y-90333726D01*
X109499174Y-90189563D01*
X109382202Y-90111405D01*
X109547285Y-90043025D01*
X109778222Y-89888718D01*
X109974618Y-89692322D01*
X110128925Y-89461385D01*
X110235214Y-89204782D01*
X110269628Y-89031774D01*
X110455084Y-89117263D01*
X110489208Y-89125454D01*
X110444136Y-89161471D01*
X110363529Y-89257119D01*
X110303132Y-89366655D01*
X110265265Y-89485870D01*
X110254400Y-89586750D01*
X110413150Y-89745500D01*
X111662400Y-89745500D01*
X111662400Y-89142250D01*
X111916400Y-89142250D01*
X111916400Y-89745500D01*
X113165650Y-89745500D01*
X113324400Y-89586750D01*
X113313535Y-89485870D01*
X113275668Y-89366655D01*
X113215271Y-89257119D01*
X113134664Y-89161471D01*
X113036947Y-89083386D01*
X112925873Y-89025865D01*
X112805712Y-88991119D01*
X112681081Y-88980482D01*
X112075150Y-88983500D01*
X111916400Y-89142250D01*
X111662400Y-89142250D01*
X111532229Y-89012079D01*
X111534307Y-89010968D01*
X111588182Y-88781887D01*
X113410618Y-88781887D01*
X113464493Y-89010968D01*
X113695084Y-89117263D01*
X113941981Y-89176528D01*
X114195696Y-89186488D01*
X114446479Y-89146759D01*
X114684693Y-89058868D01*
X114774307Y-89010968D01*
X114828182Y-88781887D01*
X114119400Y-88073105D01*
X113410618Y-88781887D01*
X111588182Y-88781887D01*
X110879400Y-88073105D01*
X110865258Y-88087248D01*
X110685653Y-87907643D01*
X110699795Y-87893500D01*
X111059005Y-87893500D01*
X111767787Y-88602282D01*
X111996868Y-88548407D01*
X112103163Y-88317816D01*
X112162428Y-88070919D01*
X112166397Y-87969796D01*
X112826412Y-87969796D01*
X112866141Y-88220579D01*
X112954032Y-88458793D01*
X113001932Y-88548407D01*
X113231013Y-88602282D01*
X113939795Y-87893500D01*
X114299005Y-87893500D01*
X115007787Y-88602282D01*
X115236868Y-88548407D01*
X115343163Y-88317816D01*
X115402428Y-88070919D01*
X115412388Y-87817204D01*
X115372659Y-87566421D01*
X115284768Y-87328207D01*
X115236868Y-87238593D01*
X115007787Y-87184718D01*
X114299005Y-87893500D01*
X113939795Y-87893500D01*
X113231013Y-87184718D01*
X113001932Y-87238593D01*
X112895637Y-87469184D01*
X112836372Y-87716081D01*
X112826412Y-87969796D01*
X112166397Y-87969796D01*
X112172388Y-87817204D01*
X112132659Y-87566421D01*
X112044768Y-87328207D01*
X111996868Y-87238593D01*
X111767787Y-87184718D01*
X111059005Y-87893500D01*
X110699795Y-87893500D01*
X109991013Y-87184718D01*
X109761932Y-87238593D01*
X109655637Y-87469184D01*
X109625189Y-87596029D01*
X109547285Y-87543975D01*
X109290682Y-87437686D01*
X109018273Y-87383500D01*
X108740527Y-87383500D01*
X108468118Y-87437686D01*
X108211515Y-87543975D01*
X108136992Y-87593770D01*
X108132659Y-87566421D01*
X108044768Y-87328207D01*
X107996868Y-87238593D01*
X107767787Y-87184718D01*
X107059005Y-87893500D01*
X107073148Y-87907643D01*
X106893543Y-88087248D01*
X106879400Y-88073105D01*
X106170618Y-88781887D01*
X106224493Y-89010968D01*
X106455084Y-89117263D01*
X106701981Y-89176528D01*
X106955696Y-89186488D01*
X107206479Y-89146759D01*
X107444693Y-89058868D01*
X107489769Y-89034774D01*
X107523586Y-89204782D01*
X107629875Y-89461385D01*
X107784182Y-89692322D01*
X107980578Y-89888718D01*
X108211515Y-90043025D01*
X108327213Y-90090949D01*
X108179626Y-90189563D01*
X108110689Y-90258500D01*
X107362650Y-90258500D01*
X107345650Y-90241500D01*
X107136969Y-90241500D01*
X107113580Y-90228998D01*
X106993882Y-90192688D01*
X106869400Y-90180428D01*
X105069400Y-90180428D01*
X104944918Y-90192688D01*
X104825220Y-90228998D01*
X104801831Y-90241500D01*
X104593150Y-90241500D01*
X104434400Y-90400250D01*
X104445265Y-90501130D01*
X104474336Y-90592654D01*
X104443588Y-90694018D01*
X104431328Y-90818500D01*
X102996276Y-90818500D01*
X102997203Y-89986750D01*
X104434400Y-89986750D01*
X104593150Y-90145500D01*
X105842400Y-90145500D01*
X105842400Y-89542250D01*
X106096400Y-89542250D01*
X106096400Y-90145500D01*
X107345650Y-90145500D01*
X107504400Y-89986750D01*
X107493535Y-89885870D01*
X107455668Y-89766655D01*
X107395271Y-89657119D01*
X107314664Y-89561471D01*
X107216947Y-89483386D01*
X107105873Y-89425865D01*
X106985712Y-89391119D01*
X106861081Y-89380482D01*
X106255150Y-89383500D01*
X106096400Y-89542250D01*
X105842400Y-89542250D01*
X105683650Y-89383500D01*
X105077719Y-89380482D01*
X104953088Y-89391119D01*
X104832927Y-89425865D01*
X104721853Y-89483386D01*
X104624136Y-89561471D01*
X104543529Y-89657119D01*
X104483132Y-89766655D01*
X104445265Y-89885870D01*
X104434400Y-89986750D01*
X102997203Y-89986750D01*
X102998548Y-88781887D01*
X104140618Y-88781887D01*
X104194493Y-89010968D01*
X104425084Y-89117263D01*
X104671981Y-89176528D01*
X104925696Y-89186488D01*
X105176479Y-89146759D01*
X105414693Y-89058868D01*
X105504307Y-89010968D01*
X105558182Y-88781887D01*
X104849400Y-88073105D01*
X104140618Y-88781887D01*
X102998548Y-88781887D01*
X102999454Y-87969796D01*
X103556412Y-87969796D01*
X103596141Y-88220579D01*
X103684032Y-88458793D01*
X103731932Y-88548407D01*
X103961013Y-88602282D01*
X104669795Y-87893500D01*
X105029005Y-87893500D01*
X105737787Y-88602282D01*
X105864400Y-88572505D01*
X105991013Y-88602282D01*
X106699795Y-87893500D01*
X105991013Y-87184718D01*
X105864400Y-87214495D01*
X105737787Y-87184718D01*
X105029005Y-87893500D01*
X104669795Y-87893500D01*
X103961013Y-87184718D01*
X103731932Y-87238593D01*
X103625637Y-87469184D01*
X103566372Y-87716081D01*
X103556412Y-87969796D01*
X102999454Y-87969796D01*
X103000530Y-87005113D01*
X104140618Y-87005113D01*
X104849400Y-87713895D01*
X105558182Y-87005113D01*
X106170618Y-87005113D01*
X106879400Y-87713895D01*
X107588182Y-87005113D01*
X110170618Y-87005113D01*
X110879400Y-87713895D01*
X111588182Y-87005113D01*
X113410618Y-87005113D01*
X114119400Y-87713895D01*
X114828182Y-87005113D01*
X114774307Y-86776032D01*
X114543716Y-86669737D01*
X114296819Y-86610472D01*
X114043104Y-86600512D01*
X113792321Y-86640241D01*
X113554107Y-86728132D01*
X113464493Y-86776032D01*
X113410618Y-87005113D01*
X111588182Y-87005113D01*
X111534307Y-86776032D01*
X111303716Y-86669737D01*
X111056819Y-86610472D01*
X110803104Y-86600512D01*
X110552321Y-86640241D01*
X110314107Y-86728132D01*
X110224493Y-86776032D01*
X110170618Y-87005113D01*
X107588182Y-87005113D01*
X107534307Y-86776032D01*
X107303716Y-86669737D01*
X107056819Y-86610472D01*
X106803104Y-86600512D01*
X106552321Y-86640241D01*
X106314107Y-86728132D01*
X106224493Y-86776032D01*
X106170618Y-87005113D01*
X105558182Y-87005113D01*
X105504307Y-86776032D01*
X105273716Y-86669737D01*
X105026819Y-86610472D01*
X104773104Y-86600512D01*
X104522321Y-86640241D01*
X104284107Y-86728132D01*
X104194493Y-86776032D01*
X104140618Y-87005113D01*
X103000530Y-87005113D01*
X103008308Y-80033260D01*
X103202456Y-80501976D01*
X103512712Y-80966307D01*
X103907593Y-81361188D01*
X104371924Y-81671444D01*
X104887861Y-81885152D01*
X105435577Y-81994100D01*
X105994023Y-81994100D01*
X106541739Y-81885152D01*
X107057676Y-81671444D01*
X107522007Y-81361188D01*
X107916888Y-80966307D01*
X108227144Y-80501976D01*
X108440852Y-79986039D01*
X108549800Y-79438323D01*
X108549800Y-78879877D01*
X108440852Y-78332161D01*
X108227144Y-77816224D01*
X107916888Y-77351893D01*
X107522007Y-76957012D01*
X107129914Y-76695024D01*
X138134115Y-76697330D01*
%TA.AperFunction,Conductor*%
D24*
G36*
X138134115Y-76697330D02*
G01*
X137745473Y-76957012D01*
X137350592Y-77351893D01*
X137040336Y-77816224D01*
X136826628Y-78332161D01*
X136717680Y-78879877D01*
X136717680Y-79438323D01*
X136826628Y-79986039D01*
X137040336Y-80501976D01*
X137350592Y-80966307D01*
X137745473Y-81361188D01*
X138209804Y-81671444D01*
X138725741Y-81885152D01*
X139273457Y-81994100D01*
X139831903Y-81994100D01*
X140379619Y-81885152D01*
X140895556Y-81671444D01*
X141359887Y-81361188D01*
X141754768Y-80966307D01*
X142065024Y-80501976D01*
X142088000Y-80446507D01*
X142088000Y-94397928D01*
X142080856Y-94389223D01*
X142059215Y-94362853D01*
X142059212Y-94362850D01*
X142036826Y-94335573D01*
X142009550Y-94313188D01*
X141802220Y-94105859D01*
X141779827Y-94078573D01*
X141747053Y-94051676D01*
X141776400Y-93904139D01*
X141776400Y-93700261D01*
X141736626Y-93500302D01*
X141658605Y-93311944D01*
X141545337Y-93142426D01*
X141401174Y-92998263D01*
X141231656Y-92884995D01*
X141043298Y-92806974D01*
X140843339Y-92767200D01*
X140647850Y-92767200D01*
X140664200Y-92750850D01*
X140667257Y-92581011D01*
X140655857Y-92456448D01*
X140620376Y-92336501D01*
X140562175Y-92225782D01*
X140483493Y-92128545D01*
X140387353Y-92048526D01*
X140277449Y-91988800D01*
X140198438Y-91964235D01*
X140201600Y-91948339D01*
X140201600Y-91744461D01*
X140161826Y-91544502D01*
X140083805Y-91356144D01*
X139970537Y-91186626D01*
X139826374Y-91042463D01*
X139656856Y-90929195D01*
X139468498Y-90851174D01*
X139268539Y-90811400D01*
X139064661Y-90811400D01*
X138864702Y-90851174D01*
X138676344Y-90929195D01*
X138620500Y-90966509D01*
X138564656Y-90929195D01*
X138376298Y-90851174D01*
X138176339Y-90811400D01*
X137972461Y-90811400D01*
X137772502Y-90851174D01*
X137584144Y-90929195D01*
X137414626Y-91042463D01*
X137337427Y-91119662D01*
X136330522Y-90112759D01*
X136308129Y-90085473D01*
X136199256Y-89996123D01*
X136075044Y-89929730D01*
X135940266Y-89888846D01*
X135835222Y-89878500D01*
X135835212Y-89878500D01*
X135800102Y-89875042D01*
X135764992Y-89878500D01*
X113202650Y-89878500D01*
X113165650Y-89841500D01*
X112956969Y-89841500D01*
X112933580Y-89828998D01*
X112813882Y-89792688D01*
X112689400Y-89780428D01*
X110889400Y-89780428D01*
X110764918Y-89792688D01*
X110645220Y-89828998D01*
X110621831Y-89841500D01*
X110413150Y-89841500D01*
X110254400Y-90000250D01*
X110265265Y-90101130D01*
X110294336Y-90192654D01*
X110263588Y-90294018D01*
X110251328Y-90418500D01*
X110251328Y-90768500D01*
X110263588Y-90892982D01*
X110294080Y-90993500D01*
X110263588Y-91094018D01*
X110251328Y-91218500D01*
X110251328Y-91568500D01*
X110263588Y-91692982D01*
X110294336Y-91794346D01*
X110265265Y-91885870D01*
X110254400Y-91986750D01*
X110413150Y-92145500D01*
X110621831Y-92145500D01*
X110645220Y-92158002D01*
X110762241Y-92193500D01*
X110645220Y-92228998D01*
X110621831Y-92241500D01*
X110413150Y-92241500D01*
X110254400Y-92400250D01*
X110265265Y-92501130D01*
X110294336Y-92592654D01*
X110263588Y-92694018D01*
X110251328Y-92818500D01*
X110251328Y-93168500D01*
X110263588Y-93292982D01*
X110294080Y-93393500D01*
X110263588Y-93494018D01*
X110251328Y-93618500D01*
X110251328Y-93968500D01*
X110263588Y-94092982D01*
X110294336Y-94194346D01*
X110265265Y-94285870D01*
X110254400Y-94386750D01*
X110413150Y-94545500D01*
X110621831Y-94545500D01*
X110645220Y-94558002D01*
X110762241Y-94593500D01*
X110645220Y-94628998D01*
X110621831Y-94641500D01*
X110413150Y-94641500D01*
X110254400Y-94800250D01*
X110265265Y-94901130D01*
X110294336Y-94992654D01*
X110263588Y-95094018D01*
X110251328Y-95218500D01*
X110251328Y-95568500D01*
X110263588Y-95692982D01*
X110294080Y-95793500D01*
X110263588Y-95894018D01*
X110251328Y-96018500D01*
X110251328Y-96368500D01*
X110263588Y-96492982D01*
X110294080Y-96593500D01*
X110263588Y-96694018D01*
X110251328Y-96818500D01*
X110251328Y-97168500D01*
X110263588Y-97292982D01*
X110294080Y-97393500D01*
X110263588Y-97494018D01*
X110251328Y-97618500D01*
X110251328Y-97968500D01*
X110263588Y-98092982D01*
X110294336Y-98194346D01*
X110265265Y-98285870D01*
X110254400Y-98386750D01*
X110413150Y-98545500D01*
X110621831Y-98545500D01*
X110645220Y-98558002D01*
X110762241Y-98593500D01*
X110645220Y-98628998D01*
X110621831Y-98641500D01*
X110413150Y-98641500D01*
X110254400Y-98800250D01*
X110265265Y-98901130D01*
X110294336Y-98992654D01*
X110263588Y-99094018D01*
X110251328Y-99218500D01*
X110251328Y-99568500D01*
X110263588Y-99692982D01*
X110294080Y-99793500D01*
X110263588Y-99894018D01*
X110251328Y-100018500D01*
X110251328Y-100368500D01*
X110263588Y-100492982D01*
X110294336Y-100594346D01*
X110265265Y-100685870D01*
X110254400Y-100786750D01*
X110413150Y-100945500D01*
X110621831Y-100945500D01*
X110645220Y-100958002D01*
X110762241Y-100993500D01*
X110645220Y-101028998D01*
X110621831Y-101041500D01*
X110413150Y-101041500D01*
X110254400Y-101200250D01*
X110265265Y-101301130D01*
X110294336Y-101392654D01*
X110263588Y-101494018D01*
X110251328Y-101618500D01*
X110251328Y-101968500D01*
X110263588Y-102092982D01*
X110294080Y-102193500D01*
X110263588Y-102294018D01*
X110251328Y-102418500D01*
X110251328Y-102768500D01*
X110263588Y-102892982D01*
X110294336Y-102994346D01*
X110265265Y-103085870D01*
X110254400Y-103186750D01*
X110413150Y-103345500D01*
X110621831Y-103345500D01*
X110645220Y-103358002D01*
X110764918Y-103394312D01*
X110889400Y-103406572D01*
X111936400Y-103406572D01*
X111936400Y-103441500D01*
X111916400Y-103441500D01*
X111916400Y-104044750D01*
X112075150Y-104203500D01*
X112681081Y-104206518D01*
X112805712Y-104195881D01*
X112925873Y-104161135D01*
X113036947Y-104103614D01*
X113134664Y-104025529D01*
X113215271Y-103929881D01*
X113275668Y-103820345D01*
X113313535Y-103701130D01*
X113324400Y-103600250D01*
X113244652Y-103520502D01*
X113324400Y-103520502D01*
X113324400Y-103403500D01*
X114830988Y-103403500D01*
X115912705Y-104485218D01*
X115938072Y-104516128D01*
X116005810Y-104571719D01*
X116061410Y-104617349D01*
X116108175Y-104642345D01*
X116202127Y-104692563D01*
X116354812Y-104738880D01*
X116473809Y-104750600D01*
X116473811Y-104750600D01*
X116513599Y-104754519D01*
X116553387Y-104750600D01*
X116696856Y-104750600D01*
X116745377Y-104809723D01*
X116798232Y-104853100D01*
X116745377Y-104896477D01*
X116636488Y-105029158D01*
X116555577Y-105180533D01*
X116505752Y-105344784D01*
X116488928Y-105515600D01*
X116488928Y-106015600D01*
X116505752Y-106186416D01*
X116555577Y-106350667D01*
X116636488Y-106502042D01*
X116745377Y-106634723D01*
X116878058Y-106743612D01*
X117029433Y-106824523D01*
X117193684Y-106874348D01*
X117364500Y-106891172D01*
X117839500Y-106891172D01*
X118010316Y-106874348D01*
X118174567Y-106824523D01*
X118325942Y-106743612D01*
X118457884Y-106635330D01*
X118475420Y-106644703D01*
X118595118Y-106681013D01*
X118719600Y-106693273D01*
X119672100Y-106693273D01*
X119796582Y-106681013D01*
X119916280Y-106644703D01*
X120026594Y-106585738D01*
X120118601Y-106510230D01*
X120118601Y-106541068D01*
X120114924Y-106578400D01*
X120118601Y-106615733D01*
X120129598Y-106727386D01*
X120134520Y-106743612D01*
X120173054Y-106870646D01*
X120243626Y-107002676D01*
X120314801Y-107089402D01*
X120338600Y-107118401D01*
X120367598Y-107142199D01*
X120695796Y-107470397D01*
X120719599Y-107499401D01*
X120835324Y-107594374D01*
X120967353Y-107664946D01*
X121110614Y-107708403D01*
X121222267Y-107719400D01*
X121222276Y-107719400D01*
X121259599Y-107723076D01*
X121296922Y-107719400D01*
X134481078Y-107719400D01*
X134518400Y-107723076D01*
X134555722Y-107719400D01*
X134555733Y-107719400D01*
X134667386Y-107708403D01*
X134810647Y-107664946D01*
X134942676Y-107594374D01*
X135058401Y-107499401D01*
X135082204Y-107470397D01*
X139102803Y-103449799D01*
X139131801Y-103426001D01*
X139226774Y-103310276D01*
X139253669Y-103259960D01*
X139281651Y-103251472D01*
X139435187Y-103169405D01*
X139569762Y-103058962D01*
X139680205Y-102924387D01*
X139762272Y-102770851D01*
X139812808Y-102604255D01*
X139829872Y-102431001D01*
X139829872Y-101530999D01*
X139812808Y-101357745D01*
X139762272Y-101191149D01*
X139680205Y-101037613D01*
X139627148Y-100972963D01*
X139673392Y-100926720D01*
X139701437Y-100903704D01*
X139793286Y-100791786D01*
X139813187Y-100754554D01*
X139861536Y-100664100D01*
X139903564Y-100525551D01*
X139917755Y-100381466D01*
X139914199Y-100345361D01*
X139914199Y-99905849D01*
X140039950Y-100031600D01*
X140158005Y-100021536D01*
X140277449Y-99984400D01*
X140387353Y-99924674D01*
X140483493Y-99844655D01*
X140562175Y-99747418D01*
X140620376Y-99636699D01*
X140655857Y-99516752D01*
X140667257Y-99392189D01*
X140664200Y-99222350D01*
X140505450Y-99063600D01*
X139914199Y-99063600D01*
X139914199Y-98809600D01*
X139923950Y-98809600D01*
X140050950Y-98936600D01*
X140118826Y-98931846D01*
X140239867Y-98900300D01*
X140352427Y-98845747D01*
X140400208Y-98809600D01*
X140505450Y-98809600D01*
X140664200Y-98650850D01*
X140667257Y-98481011D01*
X140655857Y-98356448D01*
X140653681Y-98349093D01*
X140654200Y-98345350D01*
X140651891Y-98343041D01*
X140620376Y-98236501D01*
X140590544Y-98179750D01*
X140608702Y-98145780D01*
X140640241Y-98041809D01*
X140654200Y-98027850D01*
X140648728Y-97988355D01*
X140657272Y-97901600D01*
X140657272Y-97671600D01*
X140648728Y-97584845D01*
X140654200Y-97545350D01*
X140640241Y-97531391D01*
X140608702Y-97427420D01*
X140586883Y-97386600D01*
X140608702Y-97345780D01*
X140640241Y-97241809D01*
X140654200Y-97227850D01*
X140648728Y-97188355D01*
X140657272Y-97101600D01*
X140657272Y-96871600D01*
X140648901Y-96786600D01*
X140657272Y-96701600D01*
X140657272Y-96471600D01*
X140648901Y-96386600D01*
X140657272Y-96301600D01*
X140657272Y-96071600D01*
X140648728Y-95984845D01*
X140654200Y-95945350D01*
X140640241Y-95931391D01*
X140634845Y-95913602D01*
X140654200Y-95913602D01*
X140654200Y-95905619D01*
X140724863Y-96011374D01*
X140869026Y-96155537D01*
X141038544Y-96268805D01*
X141226902Y-96346826D01*
X141426861Y-96386600D01*
X141630739Y-96386600D01*
X141830698Y-96346826D01*
X142019056Y-96268805D01*
X142088001Y-96222738D01*
X142088001Y-111948335D01*
X142065024Y-111892864D01*
X141754768Y-111428533D01*
X141359887Y-111033652D01*
X140895556Y-110723396D01*
X140379619Y-110509688D01*
X139831903Y-110400740D01*
X139273457Y-110400740D01*
X138725741Y-110509688D01*
X138209804Y-110723396D01*
X137745473Y-111033652D01*
X137350592Y-111428533D01*
X137040336Y-111892864D01*
X136826628Y-112408801D01*
X136717680Y-112956517D01*
X136717680Y-113514963D01*
X136826628Y-114062679D01*
X137040336Y-114578616D01*
X137350592Y-115042947D01*
X137745473Y-115437828D01*
X138209804Y-115748084D01*
X138479721Y-115859887D01*
X106793484Y-115857516D01*
X107057676Y-115748084D01*
X107522007Y-115437828D01*
X107916888Y-115042947D01*
X108227144Y-114578616D01*
X108440852Y-114062679D01*
X108549800Y-113514963D01*
X108549800Y-112956517D01*
X108440852Y-112408801D01*
X108227144Y-111892864D01*
X107916888Y-111428533D01*
X107522007Y-111033652D01*
X107057676Y-110723396D01*
X106541739Y-110509688D01*
X105994023Y-110400740D01*
X105435577Y-110400740D01*
X104887861Y-110509688D01*
X104371924Y-110723396D01*
X103907593Y-111033652D01*
X103512712Y-111428533D01*
X103202456Y-111892864D01*
X102988748Y-112408801D01*
X102972100Y-112492496D01*
X102978693Y-106581887D01*
X104140618Y-106581887D01*
X104194493Y-106810968D01*
X104425084Y-106917263D01*
X104671981Y-106976528D01*
X104925696Y-106986488D01*
X105176479Y-106946759D01*
X105414693Y-106858868D01*
X105504307Y-106810968D01*
X105558182Y-106581887D01*
X106170618Y-106581887D01*
X106224493Y-106810968D01*
X106455084Y-106917263D01*
X106701981Y-106976528D01*
X106955696Y-106986488D01*
X107206479Y-106946759D01*
X107444693Y-106858868D01*
X107534307Y-106810968D01*
X107588182Y-106581887D01*
X110170618Y-106581887D01*
X110224493Y-106810968D01*
X110455084Y-106917263D01*
X110701981Y-106976528D01*
X110955696Y-106986488D01*
X111206479Y-106946759D01*
X111444693Y-106858868D01*
X111534307Y-106810968D01*
X111588182Y-106581887D01*
X114410618Y-106581887D01*
X114464493Y-106810968D01*
X114695084Y-106917263D01*
X114941981Y-106976528D01*
X115195696Y-106986488D01*
X115446479Y-106946759D01*
X115684693Y-106858868D01*
X115774307Y-106810968D01*
X115828182Y-106581887D01*
X115119400Y-105873105D01*
X114410618Y-106581887D01*
X111588182Y-106581887D01*
X110879400Y-105873105D01*
X110170618Y-106581887D01*
X107588182Y-106581887D01*
X106879400Y-105873105D01*
X106170618Y-106581887D01*
X105558182Y-106581887D01*
X104849400Y-105873105D01*
X104140618Y-106581887D01*
X102978693Y-106581887D01*
X102979599Y-105769796D01*
X103556412Y-105769796D01*
X103596141Y-106020579D01*
X103684032Y-106258793D01*
X103731932Y-106348407D01*
X103961013Y-106402282D01*
X104669795Y-105693500D01*
X105029005Y-105693500D01*
X105737787Y-106402282D01*
X105864400Y-106372505D01*
X105991013Y-106402282D01*
X106699795Y-105693500D01*
X105991013Y-104984718D01*
X105864400Y-105014495D01*
X105737787Y-104984718D01*
X105029005Y-105693500D01*
X104669795Y-105693500D01*
X103961013Y-104984718D01*
X103731932Y-105038593D01*
X103625637Y-105269184D01*
X103566372Y-105516081D01*
X103556412Y-105769796D01*
X102979599Y-105769796D01*
X102980675Y-104805113D01*
X104140618Y-104805113D01*
X104849400Y-105513895D01*
X105558182Y-104805113D01*
X105510969Y-104604360D01*
X105683650Y-104603500D01*
X105842400Y-104444750D01*
X105842400Y-103841500D01*
X104593150Y-103841500D01*
X104434400Y-104000250D01*
X104445265Y-104101130D01*
X104483132Y-104220345D01*
X104543529Y-104329881D01*
X104623082Y-104424278D01*
X104522321Y-104440241D01*
X104284107Y-104528132D01*
X104194493Y-104576032D01*
X104140618Y-104805113D01*
X102980675Y-104805113D01*
X102996276Y-90818500D01*
X104431328Y-90818500D01*
X104431328Y-91168500D01*
X104443588Y-91292982D01*
X104474080Y-91393500D01*
X104443588Y-91494018D01*
X104431328Y-91618500D01*
X104431328Y-91968500D01*
X104443588Y-92092982D01*
X104474336Y-92194346D01*
X104445265Y-92285870D01*
X104434400Y-92386750D01*
X104593150Y-92545500D01*
X104801831Y-92545500D01*
X104825220Y-92558002D01*
X104942241Y-92593500D01*
X104825220Y-92628998D01*
X104801831Y-92641500D01*
X104593150Y-92641500D01*
X104434400Y-92800250D01*
X104445265Y-92901130D01*
X104474336Y-92992654D01*
X104443588Y-93094018D01*
X104431328Y-93218500D01*
X104431328Y-93568500D01*
X104443588Y-93692982D01*
X104474080Y-93793500D01*
X104443588Y-93894018D01*
X104431328Y-94018500D01*
X104431328Y-94368500D01*
X104443588Y-94492982D01*
X104474336Y-94594346D01*
X104445265Y-94685870D01*
X104434400Y-94786750D01*
X104593150Y-94945500D01*
X104801831Y-94945500D01*
X104825220Y-94958002D01*
X104942241Y-94993500D01*
X104825220Y-95028998D01*
X104801831Y-95041500D01*
X104593150Y-95041500D01*
X104434400Y-95200250D01*
X104445265Y-95301130D01*
X104474336Y-95392654D01*
X104443588Y-95494018D01*
X104431328Y-95618500D01*
X104431328Y-95968500D01*
X104443588Y-96092982D01*
X104474080Y-96193500D01*
X104443588Y-96294018D01*
X104431328Y-96418500D01*
X104431328Y-96768500D01*
X104443588Y-96892982D01*
X104474080Y-96993500D01*
X104443588Y-97094018D01*
X104431328Y-97218500D01*
X104431328Y-97568500D01*
X104443588Y-97692982D01*
X104474080Y-97793500D01*
X104443588Y-97894018D01*
X104431328Y-98018500D01*
X104431328Y-98368500D01*
X104443588Y-98492982D01*
X104474336Y-98594346D01*
X104445265Y-98685870D01*
X104434400Y-98786750D01*
X104593150Y-98945500D01*
X104801831Y-98945500D01*
X104825220Y-98958002D01*
X104942241Y-98993500D01*
X104825220Y-99028998D01*
X104801831Y-99041500D01*
X104593150Y-99041500D01*
X104434400Y-99200250D01*
X104445265Y-99301130D01*
X104474336Y-99392654D01*
X104443588Y-99494018D01*
X104431328Y-99618500D01*
X104431328Y-99968500D01*
X104443588Y-100092982D01*
X104474080Y-100193500D01*
X104443588Y-100294018D01*
X104431328Y-100418500D01*
X104431328Y-100768500D01*
X104443588Y-100892982D01*
X104474336Y-100994346D01*
X104445265Y-101085870D01*
X104434400Y-101186750D01*
X104593150Y-101345500D01*
X104801831Y-101345500D01*
X104825220Y-101358002D01*
X104942241Y-101393500D01*
X104825220Y-101428998D01*
X104801831Y-101441500D01*
X104593150Y-101441500D01*
X104434400Y-101600250D01*
X104445265Y-101701130D01*
X104474336Y-101792654D01*
X104443588Y-101894018D01*
X104431328Y-102018500D01*
X104431328Y-102368500D01*
X104443588Y-102492982D01*
X104474080Y-102593500D01*
X104443588Y-102694018D01*
X104431328Y-102818500D01*
X104431328Y-103168500D01*
X104443588Y-103292982D01*
X104474336Y-103394346D01*
X104445265Y-103485870D01*
X104434400Y-103586750D01*
X104593150Y-103745500D01*
X104801831Y-103745500D01*
X104825220Y-103758002D01*
X104944918Y-103794312D01*
X105069400Y-103806572D01*
X106116400Y-103806572D01*
X106116400Y-103841500D01*
X106096400Y-103841500D01*
X106096400Y-104444750D01*
X106226571Y-104574921D01*
X106224493Y-104576032D01*
X106170618Y-104805113D01*
X106879400Y-105513895D01*
X106893543Y-105499753D01*
X107073148Y-105679358D01*
X107059005Y-105693500D01*
X107767787Y-106402282D01*
X107996868Y-106348407D01*
X108103163Y-106117816D01*
X108133611Y-105990971D01*
X108211515Y-106043025D01*
X108468118Y-106149314D01*
X108740527Y-106203500D01*
X109018273Y-106203500D01*
X109290682Y-106149314D01*
X109547285Y-106043025D01*
X109621808Y-105993230D01*
X109626141Y-106020579D01*
X109714032Y-106258793D01*
X109761932Y-106348407D01*
X109991013Y-106402282D01*
X110699795Y-105693500D01*
X111059005Y-105693500D01*
X111767787Y-106402282D01*
X111996868Y-106348407D01*
X112103163Y-106117816D01*
X112162428Y-105870919D01*
X112166397Y-105769796D01*
X113826412Y-105769796D01*
X113866141Y-106020579D01*
X113954032Y-106258793D01*
X114001932Y-106348407D01*
X114231013Y-106402282D01*
X114939795Y-105693500D01*
X115299005Y-105693500D01*
X116007787Y-106402282D01*
X116236868Y-106348407D01*
X116343163Y-106117816D01*
X116402428Y-105870919D01*
X116412388Y-105617204D01*
X116372659Y-105366421D01*
X116284768Y-105128207D01*
X116236868Y-105038593D01*
X116007787Y-104984718D01*
X115299005Y-105693500D01*
X114939795Y-105693500D01*
X114231013Y-104984718D01*
X114001932Y-105038593D01*
X113895637Y-105269184D01*
X113836372Y-105516081D01*
X113826412Y-105769796D01*
X112166397Y-105769796D01*
X112172388Y-105617204D01*
X112132659Y-105366421D01*
X112044768Y-105128207D01*
X111996868Y-105038593D01*
X111767787Y-104984718D01*
X111059005Y-105693500D01*
X110699795Y-105693500D01*
X110685653Y-105679358D01*
X110865258Y-105499753D01*
X110879400Y-105513895D01*
X111588182Y-104805113D01*
X114410618Y-104805113D01*
X115119400Y-105513895D01*
X115828182Y-104805113D01*
X115774307Y-104576032D01*
X115543716Y-104469737D01*
X115296819Y-104410472D01*
X115043104Y-104400512D01*
X114792321Y-104440241D01*
X114554107Y-104528132D01*
X114464493Y-104576032D01*
X114410618Y-104805113D01*
X111588182Y-104805113D01*
X111534307Y-104576032D01*
X111303716Y-104469737D01*
X111056819Y-104410472D01*
X110803104Y-104400512D01*
X110552321Y-104440241D01*
X110314107Y-104528132D01*
X110269031Y-104552226D01*
X110235214Y-104382218D01*
X110128925Y-104125615D01*
X109974618Y-103894678D01*
X109778222Y-103698282D01*
X109631507Y-103600250D01*
X110254400Y-103600250D01*
X110265265Y-103701130D01*
X110303132Y-103820345D01*
X110363529Y-103929881D01*
X110444136Y-104025529D01*
X110541853Y-104103614D01*
X110652927Y-104161135D01*
X110773088Y-104195881D01*
X110897719Y-104206518D01*
X111503650Y-104203500D01*
X111662400Y-104044750D01*
X111662400Y-103441500D01*
X110413150Y-103441500D01*
X110254400Y-103600250D01*
X109631507Y-103600250D01*
X109547285Y-103543975D01*
X109290682Y-103437686D01*
X109018273Y-103383500D01*
X108740527Y-103383500D01*
X108731651Y-103385266D01*
X108767426Y-103298898D01*
X108781429Y-103228500D01*
X108891339Y-103228500D01*
X109091298Y-103188726D01*
X109279656Y-103110705D01*
X109449174Y-102997437D01*
X109593337Y-102853274D01*
X109706605Y-102683756D01*
X109784626Y-102495398D01*
X109824400Y-102295439D01*
X109824400Y-102091561D01*
X109784626Y-101891602D01*
X109706605Y-101703244D01*
X109593337Y-101533726D01*
X109453111Y-101393500D01*
X109593337Y-101253274D01*
X109706605Y-101083756D01*
X109784626Y-100895398D01*
X109824400Y-100695439D01*
X109824400Y-100491561D01*
X109784626Y-100291602D01*
X109706605Y-100103244D01*
X109593337Y-99933726D01*
X109449174Y-99789563D01*
X109279656Y-99676295D01*
X109091298Y-99598274D01*
X108891339Y-99558500D01*
X108806021Y-99558500D01*
X108792826Y-99492162D01*
X108714805Y-99303804D01*
X108601537Y-99134286D01*
X108457374Y-98990123D01*
X108456843Y-98989768D01*
X108593337Y-98853274D01*
X108706605Y-98683756D01*
X108784626Y-98495398D01*
X108797933Y-98428500D01*
X108891339Y-98428500D01*
X109091298Y-98388726D01*
X109279656Y-98310705D01*
X109449174Y-98197437D01*
X109593337Y-98053274D01*
X109706605Y-97883756D01*
X109784626Y-97695398D01*
X109824400Y-97495439D01*
X109824400Y-97291561D01*
X109784626Y-97091602D01*
X109706605Y-96903244D01*
X109593337Y-96733726D01*
X109453111Y-96593500D01*
X109593337Y-96453274D01*
X109706605Y-96283756D01*
X109784626Y-96095398D01*
X109824400Y-95895439D01*
X109824400Y-95691561D01*
X109784626Y-95491602D01*
X109706605Y-95303244D01*
X109593337Y-95133726D01*
X109453111Y-94993500D01*
X109593337Y-94853274D01*
X109706605Y-94683756D01*
X109784626Y-94495398D01*
X109824400Y-94295439D01*
X109824400Y-94091561D01*
X109784626Y-93891602D01*
X109706605Y-93703244D01*
X109593337Y-93533726D01*
X109449174Y-93389563D01*
X109279656Y-93276295D01*
X109091298Y-93198274D01*
X108891339Y-93158500D01*
X108828535Y-93158500D01*
X108815686Y-93093902D01*
X108737665Y-92905544D01*
X108624397Y-92736026D01*
X108480234Y-92591863D01*
X108464956Y-92581655D01*
X108593337Y-92453274D01*
X108706605Y-92283756D01*
X108784626Y-92095398D01*
X108797933Y-92028500D01*
X108941339Y-92028500D01*
X109141298Y-91988726D01*
X109329656Y-91910705D01*
X109499174Y-91797437D01*
X109643337Y-91653274D01*
X109756605Y-91483756D01*
X109834626Y-91295398D01*
X109874400Y-91095439D01*
X109874400Y-90891561D01*
X109834626Y-90691602D01*
X109756605Y-90503244D01*
X109643337Y-90333726D01*
X109499174Y-90189563D01*
X109382202Y-90111405D01*
X109547285Y-90043025D01*
X109778222Y-89888718D01*
X109974618Y-89692322D01*
X110128925Y-89461385D01*
X110235214Y-89204782D01*
X110269628Y-89031774D01*
X110455084Y-89117263D01*
X110489208Y-89125454D01*
X110444136Y-89161471D01*
X110363529Y-89257119D01*
X110303132Y-89366655D01*
X110265265Y-89485870D01*
X110254400Y-89586750D01*
X110413150Y-89745500D01*
X111662400Y-89745500D01*
X111662400Y-89142250D01*
X111916400Y-89142250D01*
X111916400Y-89745500D01*
X113165650Y-89745500D01*
X113324400Y-89586750D01*
X113313535Y-89485870D01*
X113275668Y-89366655D01*
X113215271Y-89257119D01*
X113134664Y-89161471D01*
X113036947Y-89083386D01*
X112925873Y-89025865D01*
X112805712Y-88991119D01*
X112681081Y-88980482D01*
X112075150Y-88983500D01*
X111916400Y-89142250D01*
X111662400Y-89142250D01*
X111532229Y-89012079D01*
X111534307Y-89010968D01*
X111588182Y-88781887D01*
X113410618Y-88781887D01*
X113464493Y-89010968D01*
X113695084Y-89117263D01*
X113941981Y-89176528D01*
X114195696Y-89186488D01*
X114446479Y-89146759D01*
X114684693Y-89058868D01*
X114774307Y-89010968D01*
X114828182Y-88781887D01*
X114119400Y-88073105D01*
X113410618Y-88781887D01*
X111588182Y-88781887D01*
X110879400Y-88073105D01*
X110865258Y-88087248D01*
X110685653Y-87907643D01*
X110699795Y-87893500D01*
X111059005Y-87893500D01*
X111767787Y-88602282D01*
X111996868Y-88548407D01*
X112103163Y-88317816D01*
X112162428Y-88070919D01*
X112166397Y-87969796D01*
X112826412Y-87969796D01*
X112866141Y-88220579D01*
X112954032Y-88458793D01*
X113001932Y-88548407D01*
X113231013Y-88602282D01*
X113939795Y-87893500D01*
X114299005Y-87893500D01*
X115007787Y-88602282D01*
X115236868Y-88548407D01*
X115343163Y-88317816D01*
X115402428Y-88070919D01*
X115412388Y-87817204D01*
X115372659Y-87566421D01*
X115284768Y-87328207D01*
X115236868Y-87238593D01*
X115007787Y-87184718D01*
X114299005Y-87893500D01*
X113939795Y-87893500D01*
X113231013Y-87184718D01*
X113001932Y-87238593D01*
X112895637Y-87469184D01*
X112836372Y-87716081D01*
X112826412Y-87969796D01*
X112166397Y-87969796D01*
X112172388Y-87817204D01*
X112132659Y-87566421D01*
X112044768Y-87328207D01*
X111996868Y-87238593D01*
X111767787Y-87184718D01*
X111059005Y-87893500D01*
X110699795Y-87893500D01*
X109991013Y-87184718D01*
X109761932Y-87238593D01*
X109655637Y-87469184D01*
X109625189Y-87596029D01*
X109547285Y-87543975D01*
X109290682Y-87437686D01*
X109018273Y-87383500D01*
X108740527Y-87383500D01*
X108468118Y-87437686D01*
X108211515Y-87543975D01*
X108136992Y-87593770D01*
X108132659Y-87566421D01*
X108044768Y-87328207D01*
X107996868Y-87238593D01*
X107767787Y-87184718D01*
X107059005Y-87893500D01*
X107073148Y-87907643D01*
X106893543Y-88087248D01*
X106879400Y-88073105D01*
X106170618Y-88781887D01*
X106224493Y-89010968D01*
X106455084Y-89117263D01*
X106701981Y-89176528D01*
X106955696Y-89186488D01*
X107206479Y-89146759D01*
X107444693Y-89058868D01*
X107489769Y-89034774D01*
X107523586Y-89204782D01*
X107629875Y-89461385D01*
X107784182Y-89692322D01*
X107980578Y-89888718D01*
X108211515Y-90043025D01*
X108327213Y-90090949D01*
X108179626Y-90189563D01*
X108110689Y-90258500D01*
X107362650Y-90258500D01*
X107345650Y-90241500D01*
X107136969Y-90241500D01*
X107113580Y-90228998D01*
X106993882Y-90192688D01*
X106869400Y-90180428D01*
X105069400Y-90180428D01*
X104944918Y-90192688D01*
X104825220Y-90228998D01*
X104801831Y-90241500D01*
X104593150Y-90241500D01*
X104434400Y-90400250D01*
X104445265Y-90501130D01*
X104474336Y-90592654D01*
X104443588Y-90694018D01*
X104431328Y-90818500D01*
X102996276Y-90818500D01*
X102997203Y-89986750D01*
X104434400Y-89986750D01*
X104593150Y-90145500D01*
X105842400Y-90145500D01*
X105842400Y-89542250D01*
X106096400Y-89542250D01*
X106096400Y-90145500D01*
X107345650Y-90145500D01*
X107504400Y-89986750D01*
X107493535Y-89885870D01*
X107455668Y-89766655D01*
X107395271Y-89657119D01*
X107314664Y-89561471D01*
X107216947Y-89483386D01*
X107105873Y-89425865D01*
X106985712Y-89391119D01*
X106861081Y-89380482D01*
X106255150Y-89383500D01*
X106096400Y-89542250D01*
X105842400Y-89542250D01*
X105683650Y-89383500D01*
X105077719Y-89380482D01*
X104953088Y-89391119D01*
X104832927Y-89425865D01*
X104721853Y-89483386D01*
X104624136Y-89561471D01*
X104543529Y-89657119D01*
X104483132Y-89766655D01*
X104445265Y-89885870D01*
X104434400Y-89986750D01*
X102997203Y-89986750D01*
X102998548Y-88781887D01*
X104140618Y-88781887D01*
X104194493Y-89010968D01*
X104425084Y-89117263D01*
X104671981Y-89176528D01*
X104925696Y-89186488D01*
X105176479Y-89146759D01*
X105414693Y-89058868D01*
X105504307Y-89010968D01*
X105558182Y-88781887D01*
X104849400Y-88073105D01*
X104140618Y-88781887D01*
X102998548Y-88781887D01*
X102999454Y-87969796D01*
X103556412Y-87969796D01*
X103596141Y-88220579D01*
X103684032Y-88458793D01*
X103731932Y-88548407D01*
X103961013Y-88602282D01*
X104669795Y-87893500D01*
X105029005Y-87893500D01*
X105737787Y-88602282D01*
X105864400Y-88572505D01*
X105991013Y-88602282D01*
X106699795Y-87893500D01*
X105991013Y-87184718D01*
X105864400Y-87214495D01*
X105737787Y-87184718D01*
X105029005Y-87893500D01*
X104669795Y-87893500D01*
X103961013Y-87184718D01*
X103731932Y-87238593D01*
X103625637Y-87469184D01*
X103566372Y-87716081D01*
X103556412Y-87969796D01*
X102999454Y-87969796D01*
X103000530Y-87005113D01*
X104140618Y-87005113D01*
X104849400Y-87713895D01*
X105558182Y-87005113D01*
X106170618Y-87005113D01*
X106879400Y-87713895D01*
X107588182Y-87005113D01*
X110170618Y-87005113D01*
X110879400Y-87713895D01*
X111588182Y-87005113D01*
X113410618Y-87005113D01*
X114119400Y-87713895D01*
X114828182Y-87005113D01*
X114774307Y-86776032D01*
X114543716Y-86669737D01*
X114296819Y-86610472D01*
X114043104Y-86600512D01*
X113792321Y-86640241D01*
X113554107Y-86728132D01*
X113464493Y-86776032D01*
X113410618Y-87005113D01*
X111588182Y-87005113D01*
X111534307Y-86776032D01*
X111303716Y-86669737D01*
X111056819Y-86610472D01*
X110803104Y-86600512D01*
X110552321Y-86640241D01*
X110314107Y-86728132D01*
X110224493Y-86776032D01*
X110170618Y-87005113D01*
X107588182Y-87005113D01*
X107534307Y-86776032D01*
X107303716Y-86669737D01*
X107056819Y-86610472D01*
X106803104Y-86600512D01*
X106552321Y-86640241D01*
X106314107Y-86728132D01*
X106224493Y-86776032D01*
X106170618Y-87005113D01*
X105558182Y-87005113D01*
X105504307Y-86776032D01*
X105273716Y-86669737D01*
X105026819Y-86610472D01*
X104773104Y-86600512D01*
X104522321Y-86640241D01*
X104284107Y-86728132D01*
X104194493Y-86776032D01*
X104140618Y-87005113D01*
X103000530Y-87005113D01*
X103008308Y-80033260D01*
X103202456Y-80501976D01*
X103512712Y-80966307D01*
X103907593Y-81361188D01*
X104371924Y-81671444D01*
X104887861Y-81885152D01*
X105435577Y-81994100D01*
X105994023Y-81994100D01*
X106541739Y-81885152D01*
X107057676Y-81671444D01*
X107522007Y-81361188D01*
X107916888Y-80966307D01*
X108227144Y-80501976D01*
X108440852Y-79986039D01*
X108549800Y-79438323D01*
X108549800Y-78879877D01*
X108440852Y-78332161D01*
X108227144Y-77816224D01*
X107916888Y-77351893D01*
X107522007Y-76957012D01*
X107129914Y-76695024D01*
X138134115Y-76697330D01*
G37*
%TD.AperFunction*%
D23*
X108125689Y-94993500D02*
X108085689Y-95033500D01*
X107122003Y-95033500D01*
X107113580Y-95028998D01*
X106996559Y-94993500D01*
X107113580Y-94958002D01*
X107136969Y-94945500D01*
X107345650Y-94945500D01*
X107362650Y-94928500D01*
X108060689Y-94928500D01*
X108125689Y-94993500D01*
%TA.AperFunction,Conductor*%
D24*
G36*
X108125689Y-94993500D02*
G01*
X108085689Y-95033500D01*
X107122003Y-95033500D01*
X107113580Y-95028998D01*
X106996559Y-94993500D01*
X107113580Y-94958002D01*
X107136969Y-94945500D01*
X107345650Y-94945500D01*
X107362650Y-94928500D01*
X108060689Y-94928500D01*
X108125689Y-94993500D01*
G37*
%TD.AperFunction*%
D23*
X132590984Y-100226546D02*
X132613373Y-100253827D01*
X132722246Y-100343177D01*
X132810816Y-100390519D01*
X132845740Y-100409186D01*
X132846458Y-100409570D01*
X132981236Y-100450454D01*
X133086280Y-100460800D01*
X133086289Y-100460800D01*
X133121399Y-100464258D01*
X133156509Y-100460800D01*
X133190050Y-100460800D01*
X133116774Y-100637702D01*
X133077000Y-100837661D01*
X133077000Y-101041539D01*
X133116774Y-101241498D01*
X133194795Y-101429856D01*
X133308063Y-101599374D01*
X133452226Y-101743537D01*
X133621744Y-101856805D01*
X133810102Y-101934826D01*
X134010061Y-101974600D01*
X134183234Y-101974600D01*
X134237057Y-102003369D01*
X134371835Y-102044253D01*
X134476879Y-102054599D01*
X134476888Y-102054599D01*
X134511998Y-102058057D01*
X134547108Y-102054599D01*
X135302491Y-102054599D01*
X135337601Y-102058057D01*
X135353728Y-102056469D01*
X135353728Y-102431001D01*
X135370792Y-102604255D01*
X135421328Y-102770851D01*
X135503395Y-102924387D01*
X135613838Y-103058962D01*
X135748413Y-103169405D01*
X135901949Y-103251472D01*
X136068545Y-103302008D01*
X136241799Y-103319072D01*
X136941801Y-103319072D01*
X137099454Y-103303545D01*
X134203599Y-106199400D01*
X126242579Y-106199400D01*
X126241000Y-106102150D01*
X126082250Y-105943400D01*
X125195500Y-105943400D01*
X125195500Y-105963400D01*
X124941500Y-105963400D01*
X124941500Y-105943400D01*
X124921500Y-105943400D01*
X124921500Y-105689400D01*
X124941500Y-105689400D01*
X124941500Y-104063800D01*
X125195500Y-104063800D01*
X125195500Y-105689400D01*
X126082250Y-105689400D01*
X126241000Y-105530650D01*
X126244072Y-105341400D01*
X126231812Y-105216918D01*
X126195502Y-105097220D01*
X126136537Y-104986906D01*
X126057185Y-104890215D01*
X126040595Y-104876600D01*
X126057185Y-104862985D01*
X126136537Y-104766294D01*
X126195502Y-104655980D01*
X126231812Y-104536282D01*
X126244072Y-104411800D01*
X126241000Y-104222550D01*
X126082250Y-104063800D01*
X125195500Y-104063800D01*
X124941500Y-104063800D01*
X124921500Y-104063800D01*
X124921500Y-103809800D01*
X124941500Y-103809800D01*
X124941500Y-102985550D01*
X125195500Y-102985550D01*
X125195500Y-103809800D01*
X126082250Y-103809800D01*
X126241000Y-103651050D01*
X126244072Y-103461800D01*
X126231812Y-103337318D01*
X126195502Y-103217620D01*
X126136537Y-103107306D01*
X126057185Y-103010615D01*
X125960494Y-102931263D01*
X125850180Y-102872298D01*
X125730482Y-102835988D01*
X125606000Y-102823728D01*
X125354250Y-102826800D01*
X125195500Y-102985550D01*
X124941500Y-102985550D01*
X124782750Y-102826800D01*
X124531000Y-102823728D01*
X124406518Y-102835988D01*
X124286820Y-102872298D01*
X124176506Y-102931263D01*
X124128606Y-102970574D01*
X123978567Y-102890377D01*
X123814316Y-102840552D01*
X123643500Y-102823728D01*
X123043500Y-102823728D01*
X122872684Y-102840552D01*
X122708433Y-102890377D01*
X122557058Y-102971288D01*
X122456414Y-103053885D01*
X122349282Y-103021387D01*
X122289056Y-103015455D01*
X122353037Y-102937494D01*
X122412002Y-102827180D01*
X122448312Y-102707482D01*
X122460572Y-102583000D01*
X122457500Y-102393750D01*
X122298750Y-102235000D01*
X121412000Y-102235000D01*
X121412000Y-102255000D01*
X121158000Y-102255000D01*
X121158000Y-102235000D01*
X121138000Y-102235000D01*
X121138000Y-101981000D01*
X121158000Y-101981000D01*
X121158000Y-101156750D01*
X121412000Y-101156750D01*
X121412000Y-101981000D01*
X122298750Y-101981000D01*
X122457500Y-101822250D01*
X122460572Y-101633000D01*
X122448312Y-101508518D01*
X122412002Y-101388820D01*
X122353037Y-101278506D01*
X122273685Y-101181815D01*
X122176994Y-101102463D01*
X122066680Y-101043498D01*
X121946982Y-101007188D01*
X121822500Y-100994928D01*
X121570750Y-100998000D01*
X121412000Y-101156750D01*
X121158000Y-101156750D01*
X120999250Y-100998000D01*
X120747500Y-100994928D01*
X120623018Y-101007188D01*
X120503320Y-101043498D01*
X120393006Y-101102463D01*
X120345106Y-101141774D01*
X120195067Y-101061577D01*
X120030816Y-101011752D01*
X119860000Y-100994928D01*
X119260000Y-100994928D01*
X119089184Y-101011752D01*
X118924933Y-101061577D01*
X118773558Y-101142488D01*
X118640877Y-101251377D01*
X118531988Y-101384058D01*
X118451077Y-101535433D01*
X118401252Y-101699684D01*
X118384428Y-101870500D01*
X118384428Y-102345500D01*
X118401252Y-102516316D01*
X118451077Y-102680567D01*
X118531988Y-102831942D01*
X118542350Y-102844568D01*
X118513513Y-102898518D01*
X118492844Y-102966655D01*
X118471485Y-103037065D01*
X118469121Y-103061064D01*
X118455080Y-103068569D01*
X118325942Y-102962588D01*
X118174567Y-102881677D01*
X118010316Y-102831852D01*
X117839500Y-102815028D01*
X117364500Y-102815028D01*
X117193684Y-102831852D01*
X117029433Y-102881677D01*
X116878058Y-102962588D01*
X116769880Y-103051368D01*
X115767399Y-102048887D01*
X115742028Y-102017972D01*
X115618689Y-101916751D01*
X115477973Y-101841537D01*
X115325288Y-101795220D01*
X115206291Y-101783500D01*
X115206288Y-101783500D01*
X115166500Y-101779581D01*
X115126712Y-101783500D01*
X113707919Y-101783500D01*
X113699903Y-101702114D01*
X113656446Y-101558853D01*
X113585874Y-101426824D01*
X113490901Y-101311099D01*
X113461898Y-101287297D01*
X113457104Y-101282503D01*
X113433301Y-101253499D01*
X113317576Y-101158526D01*
X113242600Y-101118450D01*
X113165650Y-101041500D01*
X113011857Y-101041500D01*
X112944571Y-101034873D01*
X112933580Y-101028998D01*
X112816559Y-100993500D01*
X112866007Y-100978500D01*
X113626413Y-100978500D01*
X113675176Y-101096224D01*
X113799388Y-101282120D01*
X113957480Y-101440212D01*
X114143376Y-101564424D01*
X114349933Y-101649983D01*
X114569212Y-101693600D01*
X114792788Y-101693600D01*
X115012067Y-101649983D01*
X115218624Y-101564424D01*
X115404520Y-101440212D01*
X115562612Y-101282120D01*
X115686824Y-101096224D01*
X115772383Y-100889667D01*
X115816000Y-100670388D01*
X115816000Y-100446812D01*
X115772383Y-100227533D01*
X115686824Y-100020976D01*
X115562612Y-99835080D01*
X115404520Y-99676988D01*
X115218624Y-99552776D01*
X115012067Y-99467217D01*
X114792788Y-99423600D01*
X114569212Y-99423600D01*
X114478259Y-99441691D01*
X114406287Y-99419859D01*
X114290961Y-99408500D01*
X114290953Y-99408500D01*
X114252400Y-99404703D01*
X114213847Y-99408500D01*
X113327472Y-99408500D01*
X113327472Y-99218500D01*
X113315212Y-99094018D01*
X113284464Y-98992654D01*
X113313535Y-98901130D01*
X113324400Y-98800250D01*
X113165650Y-98641500D01*
X112956969Y-98641500D01*
X112933580Y-98628998D01*
X112816559Y-98593500D01*
X112933580Y-98558002D01*
X112956969Y-98545500D01*
X113165650Y-98545500D01*
X113202650Y-98508500D01*
X130872939Y-98508500D01*
X132590984Y-100226546D01*
%TA.AperFunction,Conductor*%
D24*
G36*
X132590984Y-100226546D02*
G01*
X132613373Y-100253827D01*
X132722246Y-100343177D01*
X132810816Y-100390519D01*
X132845740Y-100409186D01*
X132846458Y-100409570D01*
X132981236Y-100450454D01*
X133086280Y-100460800D01*
X133086289Y-100460800D01*
X133121399Y-100464258D01*
X133156509Y-100460800D01*
X133190050Y-100460800D01*
X133116774Y-100637702D01*
X133077000Y-100837661D01*
X133077000Y-101041539D01*
X133116774Y-101241498D01*
X133194795Y-101429856D01*
X133308063Y-101599374D01*
X133452226Y-101743537D01*
X133621744Y-101856805D01*
X133810102Y-101934826D01*
X134010061Y-101974600D01*
X134183234Y-101974600D01*
X134237057Y-102003369D01*
X134371835Y-102044253D01*
X134476879Y-102054599D01*
X134476888Y-102054599D01*
X134511998Y-102058057D01*
X134547108Y-102054599D01*
X135302491Y-102054599D01*
X135337601Y-102058057D01*
X135353728Y-102056469D01*
X135353728Y-102431001D01*
X135370792Y-102604255D01*
X135421328Y-102770851D01*
X135503395Y-102924387D01*
X135613838Y-103058962D01*
X135748413Y-103169405D01*
X135901949Y-103251472D01*
X136068545Y-103302008D01*
X136241799Y-103319072D01*
X136941801Y-103319072D01*
X137099454Y-103303545D01*
X134203599Y-106199400D01*
X126242579Y-106199400D01*
X126241000Y-106102150D01*
X126082250Y-105943400D01*
X125195500Y-105943400D01*
X125195500Y-105963400D01*
X124941500Y-105963400D01*
X124941500Y-105943400D01*
X124921500Y-105943400D01*
X124921500Y-105689400D01*
X124941500Y-105689400D01*
X124941500Y-104063800D01*
X125195500Y-104063800D01*
X125195500Y-105689400D01*
X126082250Y-105689400D01*
X126241000Y-105530650D01*
X126244072Y-105341400D01*
X126231812Y-105216918D01*
X126195502Y-105097220D01*
X126136537Y-104986906D01*
X126057185Y-104890215D01*
X126040595Y-104876600D01*
X126057185Y-104862985D01*
X126136537Y-104766294D01*
X126195502Y-104655980D01*
X126231812Y-104536282D01*
X126244072Y-104411800D01*
X126241000Y-104222550D01*
X126082250Y-104063800D01*
X125195500Y-104063800D01*
X124941500Y-104063800D01*
X124921500Y-104063800D01*
X124921500Y-103809800D01*
X124941500Y-103809800D01*
X124941500Y-102985550D01*
X125195500Y-102985550D01*
X125195500Y-103809800D01*
X126082250Y-103809800D01*
X126241000Y-103651050D01*
X126244072Y-103461800D01*
X126231812Y-103337318D01*
X126195502Y-103217620D01*
X126136537Y-103107306D01*
X126057185Y-103010615D01*
X125960494Y-102931263D01*
X125850180Y-102872298D01*
X125730482Y-102835988D01*
X125606000Y-102823728D01*
X125354250Y-102826800D01*
X125195500Y-102985550D01*
X124941500Y-102985550D01*
X124782750Y-102826800D01*
X124531000Y-102823728D01*
X124406518Y-102835988D01*
X124286820Y-102872298D01*
X124176506Y-102931263D01*
X124128606Y-102970574D01*
X123978567Y-102890377D01*
X123814316Y-102840552D01*
X123643500Y-102823728D01*
X123043500Y-102823728D01*
X122872684Y-102840552D01*
X122708433Y-102890377D01*
X122557058Y-102971288D01*
X122456414Y-103053885D01*
X122349282Y-103021387D01*
X122289056Y-103015455D01*
X122353037Y-102937494D01*
X122412002Y-102827180D01*
X122448312Y-102707482D01*
X122460572Y-102583000D01*
X122457500Y-102393750D01*
X122298750Y-102235000D01*
X121412000Y-102235000D01*
X121412000Y-102255000D01*
X121158000Y-102255000D01*
X121158000Y-102235000D01*
X121138000Y-102235000D01*
X121138000Y-101981000D01*
X121158000Y-101981000D01*
X121158000Y-101156750D01*
X121412000Y-101156750D01*
X121412000Y-101981000D01*
X122298750Y-101981000D01*
X122457500Y-101822250D01*
X122460572Y-101633000D01*
X122448312Y-101508518D01*
X122412002Y-101388820D01*
X122353037Y-101278506D01*
X122273685Y-101181815D01*
X122176994Y-101102463D01*
X122066680Y-101043498D01*
X121946982Y-101007188D01*
X121822500Y-100994928D01*
X121570750Y-100998000D01*
X121412000Y-101156750D01*
X121158000Y-101156750D01*
X120999250Y-100998000D01*
X120747500Y-100994928D01*
X120623018Y-101007188D01*
X120503320Y-101043498D01*
X120393006Y-101102463D01*
X120345106Y-101141774D01*
X120195067Y-101061577D01*
X120030816Y-101011752D01*
X119860000Y-100994928D01*
X119260000Y-100994928D01*
X119089184Y-101011752D01*
X118924933Y-101061577D01*
X118773558Y-101142488D01*
X118640877Y-101251377D01*
X118531988Y-101384058D01*
X118451077Y-101535433D01*
X118401252Y-101699684D01*
X118384428Y-101870500D01*
X118384428Y-102345500D01*
X118401252Y-102516316D01*
X118451077Y-102680567D01*
X118531988Y-102831942D01*
X118542350Y-102844568D01*
X118513513Y-102898518D01*
X118492844Y-102966655D01*
X118471485Y-103037065D01*
X118469121Y-103061064D01*
X118455080Y-103068569D01*
X118325942Y-102962588D01*
X118174567Y-102881677D01*
X118010316Y-102831852D01*
X117839500Y-102815028D01*
X117364500Y-102815028D01*
X117193684Y-102831852D01*
X117029433Y-102881677D01*
X116878058Y-102962588D01*
X116769880Y-103051368D01*
X115767399Y-102048887D01*
X115742028Y-102017972D01*
X115618689Y-101916751D01*
X115477973Y-101841537D01*
X115325288Y-101795220D01*
X115206291Y-101783500D01*
X115206288Y-101783500D01*
X115166500Y-101779581D01*
X115126712Y-101783500D01*
X113707919Y-101783500D01*
X113699903Y-101702114D01*
X113656446Y-101558853D01*
X113585874Y-101426824D01*
X113490901Y-101311099D01*
X113461898Y-101287297D01*
X113457104Y-101282503D01*
X113433301Y-101253499D01*
X113317576Y-101158526D01*
X113242600Y-101118450D01*
X113165650Y-101041500D01*
X113011857Y-101041500D01*
X112944571Y-101034873D01*
X112933580Y-101028998D01*
X112816559Y-100993500D01*
X112866007Y-100978500D01*
X113626413Y-100978500D01*
X113675176Y-101096224D01*
X113799388Y-101282120D01*
X113957480Y-101440212D01*
X114143376Y-101564424D01*
X114349933Y-101649983D01*
X114569212Y-101693600D01*
X114792788Y-101693600D01*
X115012067Y-101649983D01*
X115218624Y-101564424D01*
X115404520Y-101440212D01*
X115562612Y-101282120D01*
X115686824Y-101096224D01*
X115772383Y-100889667D01*
X115816000Y-100670388D01*
X115816000Y-100446812D01*
X115772383Y-100227533D01*
X115686824Y-100020976D01*
X115562612Y-99835080D01*
X115404520Y-99676988D01*
X115218624Y-99552776D01*
X115012067Y-99467217D01*
X114792788Y-99423600D01*
X114569212Y-99423600D01*
X114478259Y-99441691D01*
X114406287Y-99419859D01*
X114290961Y-99408500D01*
X114290953Y-99408500D01*
X114252400Y-99404703D01*
X114213847Y-99408500D01*
X113327472Y-99408500D01*
X113327472Y-99218500D01*
X113315212Y-99094018D01*
X113284464Y-98992654D01*
X113313535Y-98901130D01*
X113324400Y-98800250D01*
X113165650Y-98641500D01*
X112956969Y-98641500D01*
X112933580Y-98628998D01*
X112816559Y-98593500D01*
X112933580Y-98558002D01*
X112956969Y-98545500D01*
X113165650Y-98545500D01*
X113202650Y-98508500D01*
X130872939Y-98508500D01*
X132590984Y-100226546D01*
G37*
%TD.AperFunction*%
D23*
X119342850Y-104909129D02*
X119048850Y-104909129D01*
X119048850Y-104793271D01*
X119342850Y-104793271D01*
X119342850Y-104909129D01*
%TA.AperFunction,Conductor*%
D24*
G36*
X119342850Y-104909129D02*
G01*
X119048850Y-104909129D01*
X119048850Y-104793271D01*
X119342850Y-104793271D01*
X119342850Y-104909129D01*
G37*
%TD.AperFunction*%
D23*
X133675946Y-98680793D02*
X133698962Y-98708838D01*
X133759507Y-98758526D01*
X133810880Y-98800687D01*
X133938566Y-98868937D01*
X134077115Y-98910965D01*
X134221200Y-98925156D01*
X134257305Y-98921600D01*
X136595558Y-98921600D01*
X136614718Y-98927412D01*
X136739200Y-98939672D01*
X136844202Y-98939672D01*
X136844202Y-99030800D01*
X133417562Y-99030800D01*
X131699520Y-97312759D01*
X131677127Y-97285473D01*
X131568254Y-97196123D01*
X131444042Y-97129730D01*
X131309264Y-97088846D01*
X131204220Y-97078500D01*
X131204210Y-97078500D01*
X131169100Y-97075042D01*
X131133990Y-97078500D01*
X115694861Y-97078500D01*
X115746983Y-96952667D01*
X115790600Y-96733388D01*
X115790600Y-96509812D01*
X115746983Y-96290533D01*
X115661424Y-96083976D01*
X115537212Y-95898080D01*
X115379120Y-95739988D01*
X115193224Y-95615776D01*
X114986667Y-95530217D01*
X114767388Y-95486600D01*
X114543812Y-95486600D01*
X114324533Y-95530217D01*
X114117976Y-95615776D01*
X113932080Y-95739988D01*
X113773988Y-95898080D01*
X113649776Y-96083976D01*
X113577486Y-96258500D01*
X113327472Y-96258500D01*
X113327472Y-96018500D01*
X113315212Y-95894018D01*
X113284720Y-95793500D01*
X113315212Y-95692982D01*
X113327472Y-95568500D01*
X113327472Y-95218500D01*
X113315212Y-95094018D01*
X113284464Y-94992654D01*
X113313535Y-94901130D01*
X113324400Y-94800250D01*
X113165650Y-94641500D01*
X112956969Y-94641500D01*
X112933580Y-94628998D01*
X112816559Y-94593500D01*
X112933580Y-94558002D01*
X112956969Y-94545500D01*
X113165650Y-94545500D01*
X113182650Y-94528500D01*
X129523654Y-94528500D01*
X133675946Y-98680793D01*
%TA.AperFunction,Conductor*%
D24*
G36*
X133675946Y-98680793D02*
G01*
X133698962Y-98708838D01*
X133759507Y-98758526D01*
X133810880Y-98800687D01*
X133938566Y-98868937D01*
X134077115Y-98910965D01*
X134221200Y-98925156D01*
X134257305Y-98921600D01*
X136595558Y-98921600D01*
X136614718Y-98927412D01*
X136739200Y-98939672D01*
X136844202Y-98939672D01*
X136844202Y-99030800D01*
X133417562Y-99030800D01*
X131699520Y-97312759D01*
X131677127Y-97285473D01*
X131568254Y-97196123D01*
X131444042Y-97129730D01*
X131309264Y-97088846D01*
X131204220Y-97078500D01*
X131204210Y-97078500D01*
X131169100Y-97075042D01*
X131133990Y-97078500D01*
X115694861Y-97078500D01*
X115746983Y-96952667D01*
X115790600Y-96733388D01*
X115790600Y-96509812D01*
X115746983Y-96290533D01*
X115661424Y-96083976D01*
X115537212Y-95898080D01*
X115379120Y-95739988D01*
X115193224Y-95615776D01*
X114986667Y-95530217D01*
X114767388Y-95486600D01*
X114543812Y-95486600D01*
X114324533Y-95530217D01*
X114117976Y-95615776D01*
X113932080Y-95739988D01*
X113773988Y-95898080D01*
X113649776Y-96083976D01*
X113577486Y-96258500D01*
X113327472Y-96258500D01*
X113327472Y-96018500D01*
X113315212Y-95894018D01*
X113284720Y-95793500D01*
X113315212Y-95692982D01*
X113327472Y-95568500D01*
X113327472Y-95218500D01*
X113315212Y-95094018D01*
X113284464Y-94992654D01*
X113313535Y-94901130D01*
X113324400Y-94800250D01*
X113165650Y-94641500D01*
X112956969Y-94641500D01*
X112933580Y-94628998D01*
X112816559Y-94593500D01*
X112933580Y-94558002D01*
X112956969Y-94545500D01*
X113165650Y-94545500D01*
X113182650Y-94528500D01*
X129523654Y-94528500D01*
X133675946Y-98680793D01*
G37*
%TD.AperFunction*%
D23*
X133575982Y-95867346D02*
X133598371Y-95894627D01*
X133707244Y-95983977D01*
X133831456Y-96050370D01*
X133966234Y-96091254D01*
X134071278Y-96101600D01*
X134071287Y-96101600D01*
X134106397Y-96105058D01*
X134141507Y-96101600D01*
X136136296Y-96101600D01*
X136149698Y-96145780D01*
X136171517Y-96186600D01*
X136149698Y-96227420D01*
X136118159Y-96331391D01*
X136104200Y-96345350D01*
X136109672Y-96384845D01*
X136101128Y-96471600D01*
X136101128Y-96701600D01*
X136109499Y-96786600D01*
X136101128Y-96871600D01*
X136101128Y-97101600D01*
X136109672Y-97188355D01*
X136104200Y-97227850D01*
X136118159Y-97241809D01*
X136149698Y-97345780D01*
X136171517Y-97386600D01*
X136149698Y-97427420D01*
X136142363Y-97451600D01*
X134525647Y-97451600D01*
X130373359Y-93299313D01*
X130350338Y-93271262D01*
X130238420Y-93179413D01*
X130110733Y-93111163D01*
X129972185Y-93069135D01*
X129864205Y-93058500D01*
X129828100Y-93054944D01*
X129791995Y-93058500D01*
X113327472Y-93058500D01*
X113327472Y-92818500D01*
X113315212Y-92694018D01*
X113284464Y-92592654D01*
X113313535Y-92501130D01*
X113324400Y-92400250D01*
X113165650Y-92241500D01*
X112956969Y-92241500D01*
X112933580Y-92228998D01*
X112816559Y-92193500D01*
X112933580Y-92158002D01*
X112956969Y-92145500D01*
X113165650Y-92145500D01*
X113202650Y-92108500D01*
X129817137Y-92108500D01*
X133575982Y-95867346D01*
%TA.AperFunction,Conductor*%
D24*
G36*
X133575982Y-95867346D02*
G01*
X133598371Y-95894627D01*
X133707244Y-95983977D01*
X133831456Y-96050370D01*
X133966234Y-96091254D01*
X134071278Y-96101600D01*
X134071287Y-96101600D01*
X134106397Y-96105058D01*
X134141507Y-96101600D01*
X136136296Y-96101600D01*
X136149698Y-96145780D01*
X136171517Y-96186600D01*
X136149698Y-96227420D01*
X136118159Y-96331391D01*
X136104200Y-96345350D01*
X136109672Y-96384845D01*
X136101128Y-96471600D01*
X136101128Y-96701600D01*
X136109499Y-96786600D01*
X136101128Y-96871600D01*
X136101128Y-97101600D01*
X136109672Y-97188355D01*
X136104200Y-97227850D01*
X136118159Y-97241809D01*
X136149698Y-97345780D01*
X136171517Y-97386600D01*
X136149698Y-97427420D01*
X136142363Y-97451600D01*
X134525647Y-97451600D01*
X130373359Y-93299313D01*
X130350338Y-93271262D01*
X130238420Y-93179413D01*
X130110733Y-93111163D01*
X129972185Y-93069135D01*
X129864205Y-93058500D01*
X129828100Y-93054944D01*
X129791995Y-93058500D01*
X113327472Y-93058500D01*
X113327472Y-92818500D01*
X113315212Y-92694018D01*
X113284464Y-92592654D01*
X113313535Y-92501130D01*
X113324400Y-92400250D01*
X113165650Y-92241500D01*
X112956969Y-92241500D01*
X112933580Y-92228998D01*
X112816559Y-92193500D01*
X112933580Y-92158002D01*
X112956969Y-92145500D01*
X113165650Y-92145500D01*
X113202650Y-92108500D01*
X129817137Y-92108500D01*
X133575982Y-95867346D01*
G37*
%TD.AperFunction*%
D23*
X136301692Y-92106252D02*
X136274907Y-92128545D01*
X136196225Y-92225782D01*
X136138024Y-92336501D01*
X136102543Y-92456448D01*
X136091143Y-92581011D01*
X136094200Y-92750850D01*
X136252950Y-92909600D01*
X136877200Y-92909600D01*
X136877200Y-92889600D01*
X136978400Y-92889600D01*
X136978400Y-93183600D01*
X136877200Y-93183600D01*
X136877200Y-93163600D01*
X136834450Y-93163600D01*
X136707450Y-93036600D01*
X136639574Y-93041354D01*
X136518533Y-93072900D01*
X136405973Y-93127453D01*
X136358192Y-93163600D01*
X136252950Y-93163600D01*
X136166160Y-93250390D01*
X136080964Y-93224546D01*
X135975920Y-93214200D01*
X135975910Y-93214200D01*
X135940800Y-93210742D01*
X135905690Y-93214200D01*
X135851311Y-93214200D01*
X135762374Y-93125263D01*
X135592856Y-93011995D01*
X135404498Y-92933974D01*
X135204539Y-92894200D01*
X135000661Y-92894200D01*
X134996746Y-92894979D01*
X134890537Y-92736026D01*
X134746374Y-92591863D01*
X134576856Y-92478595D01*
X134388498Y-92400574D01*
X134188539Y-92360800D01*
X133984661Y-92360800D01*
X133784702Y-92400574D01*
X133596344Y-92478595D01*
X133426826Y-92591863D01*
X133282663Y-92736026D01*
X133169395Y-92905544D01*
X133091374Y-93093902D01*
X133051600Y-93293861D01*
X133051600Y-93320640D01*
X131039459Y-91308500D01*
X135503941Y-91308500D01*
X136301692Y-92106252D01*
%TA.AperFunction,Conductor*%
D24*
G36*
X136301692Y-92106252D02*
G01*
X136274907Y-92128545D01*
X136196225Y-92225782D01*
X136138024Y-92336501D01*
X136102543Y-92456448D01*
X136091143Y-92581011D01*
X136094200Y-92750850D01*
X136252950Y-92909600D01*
X136877200Y-92909600D01*
X136877200Y-92889600D01*
X136978400Y-92889600D01*
X136978400Y-93183600D01*
X136877200Y-93183600D01*
X136877200Y-93163600D01*
X136834450Y-93163600D01*
X136707450Y-93036600D01*
X136639574Y-93041354D01*
X136518533Y-93072900D01*
X136405973Y-93127453D01*
X136358192Y-93163600D01*
X136252950Y-93163600D01*
X136166160Y-93250390D01*
X136080964Y-93224546D01*
X135975920Y-93214200D01*
X135975910Y-93214200D01*
X135940800Y-93210742D01*
X135905690Y-93214200D01*
X135851311Y-93214200D01*
X135762374Y-93125263D01*
X135592856Y-93011995D01*
X135404498Y-92933974D01*
X135204539Y-92894200D01*
X135000661Y-92894200D01*
X134996746Y-92894979D01*
X134890537Y-92736026D01*
X134746374Y-92591863D01*
X134576856Y-92478595D01*
X134388498Y-92400574D01*
X134188539Y-92360800D01*
X133984661Y-92360800D01*
X133784702Y-92400574D01*
X133596344Y-92478595D01*
X133426826Y-92591863D01*
X133282663Y-92736026D01*
X133169395Y-92905544D01*
X133091374Y-93093902D01*
X133051600Y-93293861D01*
X133051600Y-93320640D01*
X131039459Y-91308500D01*
X135503941Y-91308500D01*
X136301692Y-92106252D01*
G37*
%TD.AperFunction*%
%TD*%
M02*
